<svg width="25" height="25" viewBox="0 0 25 25" fill="none" xmlns="http://www.w3.org/2000/svg">
<path d="M22.9531 9.38439e-05H1.82812C1.34881 -0.00478416 0.887142 0.180681 0.544413 0.515794C0.201685 0.850906 0.00589291 1.30829 0 1.78759V22.9979C0.00695862 23.4765 0.203219 23.9328 0.545831 24.2671C0.888444 24.6013 1.34951 24.7862 1.82812 24.7813H22.9531C23.4325 24.7851 23.8938 24.5991 24.2364 24.2637C24.5789 23.9284 24.7748 23.4711 24.7812 22.9918V1.7815C24.7727 1.30361 24.5759 0.848398 24.2336 0.514824C23.8912 0.18125 23.4311 -0.0037293 22.9531 9.38439e-05Z" fill="white"/>
<path d="M3.66848 9.289H7.34707V21.1251H3.66848V9.289ZM5.50879 3.39838C5.93071 3.39838 6.34314 3.52352 6.69393 3.75796C7.04471 3.99241 7.31808 4.32563 7.47945 4.71547C7.64081 5.10531 7.68293 5.53425 7.60047 5.94803C7.51801 6.36181 7.31468 6.74184 7.0162 7.04003C6.71771 7.33823 6.33749 7.5412 5.92363 7.62327C5.50978 7.70533 5.08087 7.66281 4.69119 7.50107C4.3015 7.33933 3.96855 7.06564 3.73443 6.71464C3.50032 6.36363 3.37558 5.95107 3.37598 5.52916C3.37652 4.96385 3.60146 4.42189 4.00138 4.02234C4.4013 3.6228 4.94348 3.39838 5.50879 3.39838ZM9.65457 9.289H13.1808V10.914H13.2296C13.7211 9.98369 14.9196 9.0026 16.7091 9.0026C20.4344 8.99447 21.125 11.4462 21.125 14.6251V21.1251H17.4464V15.3665C17.4464 13.9954 17.4221 12.2303 15.535 12.2303C13.648 12.2303 13.3271 13.7253 13.3271 15.2771V21.1251H9.65457V9.289Z" fill="black"/>
</svg>
