<?xml version="1.0" encoding="UTF-8"?>
<svg id="Calque_2" xmlns="http://www.w3.org/2000/svg" viewBox="0 0 688.47 248.04">
  <defs>
    <style>
      .cls-1 {
        fill: #b800ff;
      }

      .cls-2 {
        stroke-width: 1.5px;
      }

      .cls-2, .cls-3 {
        fill: none;
        stroke: #fff;
        stroke-miterlimit: 10;
      }

      .cls-3 {
        stroke-width: 2px;
      }
    </style>
  </defs>
  <g id="Calque_1-2" data-name="Calque_1">
    <g>
      <g>
        <path class="cls-1" d="M25.6,201.2c-8.09,1.11-13.49,1.19-16.21.25-2.72-.94-4.46-2.41-5.24-4.4-2.77-3.33-4.16-8.31-4.16-14.96,0-13.3,2.22-26.6,6.65-39.89,4.43-13.3,6.76-23.33,6.98-30.09.33-11.3-1.77-21.94-6.32-31.92,7.42-3.99,16.51-8.59,27.26-13.8l2.49,4.32c4.32-1.11,9.81-1.5,16.46-1.16,10.53.56,19,3.1,25.43,7.65,6.43,4.54,11.55,10.8,15.38,18.78,3.82,7.98,4.99,18.04,3.49,30.17-1.5,12.13-6.46,24.46-14.88,36.99-12.74,18.95-31.86,31.64-57.35,38.07ZM69.65,110.94c-1.77-7.42-5.51-12.44-11.22-15.04-5.71-2.6-12-3.18-18.87-1.75-.33,16.29-2.33,30.64-5.98,43.05-6.65,19.51-8.53,34.8-5.65,45.88,1.22.44,4.13-.53,8.73-2.91,4.6-2.38,10.08-6.92,16.46-13.63,6.37-6.7,11.22-15.51,14.54-26.43,3.32-10.91,3.99-20.64,1.99-29.17Z"/>
        <path class="cls-1" d="M162.57,201.2c-16.07-.22-29.62-.77-40.64-1.66-11.03-.89-17.65-2.88-19.86-5.98-3.21-4.54-4.51-9.23-3.91-14.05.61-4.82,2.35-11.66,5.24-20.53,3.32-10.42,5.76-20.58,7.31-30.5,1.55-9.92,2.33-19.09,2.33-27.51,0-7.42-.67-14.07-1.99-19.95,5.21-3.99,12.69-9.25,22.44-15.79l1.99,11.14,9.81-3.82c4.76-1.88,10.8-2.83,18.12-2.83,5.76,0,11.75,1,17.95,2.99-3.66,8.31-7.48,15.74-11.47,22.27-4.43-1.33-9.2-1.99-14.3-1.99-3.44,0-7.48.36-12.13,1.08-4.65.72-7.21,1.58-7.65,2.58l-1,9.48c-.89,7.98-1.72,14.19-2.49,18.62,9.31-1.88,16.73-2.83,22.27-2.83,3.77,0,7.54.17,11.3.5-6.98,8.76-11.69,16.29-14.13,22.61-.56-.11-1.83-.17-3.82-.17-4.77,0-11.36.61-19.78,1.83-1.33,11.42-1.99,17.45-1.99,18.12,0,3.55.3,6.15.91,7.81.61,1.66,1.77,2.85,3.49,3.57,1.72.72,4.35,1.08,7.9,1.08,2.99,0,7.48-.28,13.46-.83,4.65-.44,8.75-.67,12.3-.67s7.26.17,11.14.5c-5.54,10.75-9.81,19.06-12.8,24.93Z"/>
        <path class="cls-1" d="M177.2,167.79l21.44-10.97,6.48,12.97c3.1,6.32,6.76,9.53,10.97,9.64,2.88.11,5.49-1.22,7.81-3.99,2.33-2.77,3.99-5.37,4.99-7.81,1.88-4.54,2.33-8.75,1.33-12.63-1-3.88-3.57-6.62-7.73-8.23-4.16-1.6-8.51-3.18-13.05-4.74-8.2-2.77-13.99-6.2-17.37-10.31-3.38-4.1-4.38-10.64-2.99-19.61,1.38-8.98,5.4-17.62,12.05-25.93,11.64-14.96,23.99-21.55,37.07-19.78,5.21.66,9.36,4.07,12.47,10.22,3.1,6.15,4.99,15.21,5.65,27.18-4.99,1.55-12.47,4.16-22.44,7.81-.11-5.87-.56-10.94-1.33-15.21-.78-4.26-2.33-6.62-4.65-7.06-1.33-.11-3.41,1.16-6.23,3.82s-5.13,6.98-6.9,12.97c-1.55,5.98-.64,10.42,2.74,13.3,3.38,2.88,8.28,4.99,14.71,6.32,11.08,2.22,18.45,6.12,22.11,11.72,3.66,5.6,4.54,13.22,2.66,22.86-3.32,17.73-11.3,30.92-23.94,39.56-7.65,5.21-16.76,6.43-27.34,3.66-10.58-2.77-20.09-14.68-28.51-35.74Z"/>
        <path class="cls-1" d="M273.11,202.69c-3.44,0-5.88-3.08-7.31-9.23s-1.22-14.6.66-25.35c1.88-10.75,4.93-23.77,9.14-39.06,5.43-19.84,7.2-36.74,5.32-50.7,4.21-2.44,13.96-6.43,29.26-11.97,1.99,12.3.11,29.87-5.65,52.69-5.65,22.27-8.31,38.23-7.98,47.87,1.11,11.19,3.77,18.78,7.98,22.77-16.4,8.64-26.87,12.97-31.42,12.97Z"/>
        <path class="cls-1" d="M354.22,202.86c-11.08,0-20.28-3.3-27.59-9.89-7.31-6.59-11.08-18.09-11.3-34.49-.22-10.64,1.02-21.61,3.74-32.91,2.71-11.3,7.09-21.44,13.13-30.42,6.04-8.98,13.1-15.9,21.19-20.78,8.31-4.88,16.29-7.31,23.94-7.31,17.29,0,28.65,10.36,34.08,31.08-12.19,6.98-24.1,12.03-35.74,15.13-.22-15.29-3.05-22.94-8.48-22.94-3.21,0-6.93,3.13-11.14,9.39-4.21,6.26-7.4,14.24-9.56,23.94-2.16,9.7-3.19,18.65-3.08,26.85.33,16.62,6.48,25.6,18.45,26.93,4.54.56,8.12-1.27,10.72-5.49,2.6-4.21,3.91-8.98,3.91-14.29l-20.28-1c2.55-11.08,5.71-18.45,9.47-22.11,10.42-.33,19.5-.5,27.26-.5,2.66,0,8.48.22,17.45.67-.89,12.75-2.63,23.16-5.24,31.25-2.61,8.09-6.9,15.07-12.88,20.94-10.75,10.64-23.44,15.96-38.07,15.96Z"/>
        <path class="cls-1" d="M483.71,204.19c-12.74-8.98-21.11-21.78-25.1-38.4l-11.97-49.54c-1,4.65-2.55,11.91-4.65,21.78-2.33,10.75-3.08,19.98-2.24,27.68.83,7.7,3.85,14.71,9.06,21.03-8.98,3.55-18.45,8.64-28.42,15.29-2.99-5.43-4.77-11.61-5.32-18.53-.56-6.92-.11-12.99,1.33-18.2,1.44-5.21,3.43-11.41,5.98-18.62,2.99-8.31,4.93-15.54,5.82-21.69.88-6.15,1.33-11.33,1.33-15.54,0-12.85-2.33-23.82-6.98-32.91,2.33-1.22,6.76-3.1,13.3-5.65,5.21-1.99,9.53-3.77,12.97-5.32,7.98,4.99,13.69,20.11,17.12,45.38,2.44,17.73,7.65,29.65,15.63,35.74,3.32-11.08,6.09-20.55,8.31-28.42,2.22-7.87,3.49-15.9,3.82-24.1.22-6.21-.72-12.41-2.83-18.62,2.66-1.66,9.08-4.65,19.28-8.98,2.66,6.1,3.99,13.52,3.99,22.27s-1.89,22.61-5.65,40.89c-3.77,20.39-5.71,33.63-5.82,39.73,0,8.09,1.66,14.57,4.99,19.45-6.98,4.77-14.96,9.86-23.94,15.29Z"/>
        <path class="cls-1" d="M578.79,201.2c-16.07-.22-29.62-.77-40.64-1.66-11.03-.89-17.65-2.88-19.86-5.98-3.21-4.54-4.51-9.23-3.91-14.05.61-4.82,2.35-11.66,5.24-20.53,3.32-10.42,5.76-20.58,7.31-30.5,1.55-9.92,2.33-19.09,2.33-27.51,0-7.42-.66-14.07-1.99-19.95,5.21-3.99,12.69-9.25,22.44-15.79l1.99,11.14,9.81-3.82c4.76-1.88,10.8-2.83,18.12-2.83,5.76,0,11.74,1,17.95,2.99-3.66,8.31-7.48,15.74-11.47,22.27-4.43-1.33-9.2-1.99-14.29-1.99-3.44,0-7.48.36-12.13,1.08-4.65.72-7.21,1.58-7.65,2.58l-1,9.48c-.89,7.98-1.72,14.19-2.49,18.62,9.31-1.88,16.73-2.83,22.27-2.83,3.77,0,7.54.17,11.3.5-6.98,8.76-11.69,16.29-14.13,22.61-.56-.11-1.83-.17-3.82-.17-4.77,0-11.36.61-19.78,1.83-1.33,11.42-2,17.45-2,18.12,0,3.55.3,6.15.92,7.81.61,1.66,1.77,2.85,3.49,3.57,1.72.72,4.35,1.08,7.9,1.08,2.99,0,7.48-.28,13.46-.83,4.65-.44,8.75-.67,12.3-.67s7.26.17,11.14.5c-5.54,10.75-9.81,19.06-12.8,24.93Z"/>
        <path class="cls-1" d="M660.91,201.7l-4.16,2.33c-9.31-2.33-13.96-9.64-13.96-21.94.11-7.31.39-15.4.83-24.27.33-7.2-2.27-11.36-7.81-12.47-2.22-.44-4.71-.5-7.48-.17-1.33,11.75-2,20.72-2,26.93,0,10.09,1.77,17.07,5.32,20.94-12.74,7.09-21.83,10.64-27.26,10.64-5.76,0-8.64-5.71-8.64-17.12,0-6.87,1.69-19.56,5.07-38.07,3.38-18.51,5.51-30.92,6.4-37.23.89-6.32,1.33-12.52,1.33-18.62,0-5.54-.66-10.8-1.99-15.79,11.41-4.88,20.28-8.7,26.6-11.47.33,1.22.89,3.6,1.66,7.15,9.09-3.88,17.06-5.82,23.94-5.82,14.3-.22,22.88,5.65,25.77,17.62,2.33,9.86.08,18.67-6.73,26.43-6.82,7.76-14.77,14.19-23.85,19.28,13.08.78,19.62,8.81,19.62,24.1,0,4.77-.06,8.26-.17,10.47l-.33,9.31c-.33,9.75,1.83,15.24,6.48,16.46l-18.62,11.3ZM631.49,127.89c16.18-8.98,24.27-19.06,24.27-30.25,0-4.99-1.53-8.92-4.57-11.8-3.05-2.88-8.12-3.71-15.21-2.49.55,9.42-.94,24.27-4.49,44.55Z"/>
      </g>
      <g>
        <path class="cls-3" d="M54.71,7.62l-10.58,14.9c-4.42-2.12-8.5-3.18-12.24-3.18-2.49,0-4.49.64-5.99,1.93-1.5,1.29-2.26,2.99-2.26,5.11,0,4.03,2.64,6.04,7.92,6.04v-7.76h21.95v26.72c-8.87.5-14.88.75-18.02.75-12.12,0-20.54-2.58-25.26-7.73-4.72-5.15-7.08-11.16-7.08-18.02,0-4.72,1.1-9.05,3.3-12.99,2.2-3.94,5.37-6.99,9.51-9.16,4.14-2.16,9.05-3.25,14.72-3.25,3.98,0,8.11.58,12.37,1.74,4.26,1.16,8.15,2.79,11.66,4.89Z"/>
        <path class="cls-3" d="M61.43,1.78h32.37c5.61,0,10.01,1.41,13.21,4.24,3.2,2.82,4.81,6.36,4.81,10.6,0,4.67-1.88,8.33-5.65,10.97,5.35,6.1,8.54,14.01,9.58,23.73h-22.76c-.41-6.25-1.35-10.88-2.81-13.86-1.46-2.99-3.74-4.48-6.83-4.48v18.34h-21.91V1.78ZM83.34,11.97v9.54h.62c3.94,0,5.91-1.55,5.91-4.64,0-1.3-.4-2.44-1.2-3.43-.8-.98-2.13-1.48-3.99-1.48h-1.33Z"/>
        <path class="cls-3" d="M138.14,51.32h-21.95L133.4,1.78h31.26l17.21,49.54h-21.91l-2.86-8.38h-16.1l-2.86,8.38ZM144.99,31.26h8.12l-4.06-12.3-4.06,12.3Z"/>
        <path class="cls-3" d="M186.97,1.78h30.03c6.34,0,11.21,1.61,14.61,4.82,3.4,3.21,5.1,7.19,5.1,11.93s-1.61,8.57-4.84,11.82c-3.23,3.25-7.11,4.87-11.66,4.87-3.79,0-7.56-1.44-11.33-4.32v20.42h-21.91V1.78ZM208.89,12.49v10.78c.65.17,1.25.26,1.82.26,1.64,0,2.98-.52,3.99-1.56,1.02-1.04,1.53-2.4,1.53-4.09s-.43-2.98-1.3-3.94c-.87-.96-2.1-1.44-3.7-1.44h-2.34Z"/>
        <path class="cls-3" d="M263.95,51.32h-21.95V1.78h21.95v18.15h11.17V1.78h21.95v49.54h-21.95v-18.41h-11.17v18.41Z"/>
        <path class="cls-3" d="M306.8,51.32V1.78h21.91v49.54h-21.91Z"/>
        <path class="cls-3" d="M384.66,6.23l-9.19,17.5c-2.68-.93-5.65-1.4-8.9-1.4-4.65,0-6.98,1.27-6.98,3.8,0,1.21.65,2.16,1.95,2.84,1.3.68,3.15,1.02,5.55,1.02,3.25,0,6.04-.58,8.38-1.75l9.19,18.77c-2.6,1.56-5.74,2.8-9.42,3.73-3.68.93-7.2,1.4-10.55,1.4-8.42,0-15.12-2.43-20.11-7.29-4.99-4.86-7.48-10.84-7.48-17.94,0-7.51,2.6-13.71,7.79-18.59,5.19-4.88,11.8-7.32,19.8-7.32,3.46,0,7.04.47,10.73,1.41,3.69.94,6.77,2.21,9.24,3.81Z"/>
      </g>
      <g>
        <path class="cls-2" d="M193.44,229.73h7.56c-1.88,2.92-3.9,5.46-6.07,7.64l9.24,9.43h-13.48l-3.01-3.05c-1.48,1.13-3.14,2-4.97,2.62-1.83.61-3.62.92-5.38.92-2.64,0-4.74-.66-6.29-1.98-1.55-1.32-2.32-3.01-2.32-5.07,0-3.7,2.44-6.59,7.32-8.67-2.01-2.1-3.01-4.22-3.01-6.37,0-2.47.98-4.54,2.93-6.19s4.41-2.48,7.36-2.48c2.64,0,4.8.66,6.48,1.99s2.52,3.03,2.52,5.12c0,2.6-1.37,4.9-4.12,6.88l2.83,2.89c.87-.92,1.67-2.15,2.4-3.67ZM183.91,239.89l-3.26-3.28c-.68.4-1.17.78-1.47,1.13-.31.35-.46.8-.46,1.35,0,.6.21,1.09.64,1.48s.98.59,1.64.59c.86,0,1.83-.42,2.91-1.27ZM185.31,227.92c1.73-.51,2.6-1.43,2.6-2.75,0-.6-.21-1.09-.62-1.46s-.93-.57-1.57-.57-1.16.2-1.59.61c-.44.4-.65.89-.65,1.46,0,.87.61,1.78,1.84,2.71Z"/>
        <path class="cls-2" d="M220.2,232.96v-7.07c3.41-1.86,7.28-2.79,11.6-2.79s7.15.88,9.1,2.64,2.93,4.45,2.93,8.07v13.01h-12.07v-1.76c-1.78,1.3-3.74,1.95-5.88,1.95-1.8,0-3.29-.58-4.49-1.75-1.2-1.17-1.8-2.63-1.8-4.4,0-2.02.74-3.66,2.23-4.93s3.42-1.9,5.82-1.9c1.41,0,2.78.18,4.12.55,0-1.09-.42-1.95-1.26-2.56s-2.01-.92-3.51-.92c-2.21,0-4.48.62-6.8,1.88ZM231.76,241.61v-3.28c-.73-.25-1.39-.37-1.97-.37-.73,0-1.32.19-1.76.57-.44.38-.66.87-.66,1.48s.24,1.17.71,1.6c.48.43,1.08.64,1.81.64s1.37-.21,1.88-.64Z"/>
        <path class="cls-2" d="M275.69,223.29v23.52h-11.56v-4.12h-.08c-1.19,1.5-2.4,2.59-3.63,3.28-1.24.69-2.71,1.04-4.41,1.04-2.46,0-4.44-.73-5.95-2.19s-2.26-3.5-2.26-6.13v-15.39h11.41v12.68c0,2.14.73,3.2,2.19,3.2.98,0,1.71-.42,2.21-1.25v-14.63h12.09Z"/>
        <path class="cls-2" d="M307.91,217v29.8h-14.36c-4.39,0-7.79-1.13-10.21-3.4s-3.63-5.12-3.63-8.55,1.1-6.14,3.31-8.39,4.96-3.37,8.25-3.37c1.82,0,3.34.28,4.55.84v-6.93h12.09ZM295.82,238.25v-5.29c-.6-.39-1.28-.59-2.03-.59s-1.31.28-1.78.85-.7,1.28-.7,2.14c0,1,.28,1.74.85,2.2s1.47.69,2.71.69h.96Z"/>
        <path class="cls-2" d="M324.57,223.29v23.52h-12.07v-23.52c1.59.9,3.65,1.35,6.19,1.35,2.36,0,4.32-.45,5.88-1.35ZM321.1,223.37c-.94,0-1.75-.34-2.42-1.02s-1.02-1.48-1.02-2.42.34-1.74,1.02-2.4,1.48-1,2.42-1,1.74.33,2.4,1,1,1.46,1,2.4-.33,1.75-1,2.42-1.46,1.02-2.4,1.02Z"/>
        <path class="cls-2" d="M341.21,247.16c-3.72,0-6.79-1.12-9.21-3.37s-3.62-5.17-3.62-8.78,1.19-6.54,3.57-8.81,5.47-3.4,9.26-3.4,6.92,1.13,9.31,3.4,3.58,5.2,3.58,8.81-1.19,6.52-3.58,8.77-5.49,3.38-9.31,3.38ZM341.21,232.08c-.78,0-1.42.25-1.9.75s-.73,1.15-.73,1.94.24,1.44.73,1.93,1.12.74,1.9.74,1.44-.25,1.93-.74.74-1.14.74-1.93-.25-1.46-.74-1.95-1.14-.74-1.93-.74Z"/>
        <path class="cls-2" d="M357.07,238.8v-7.52h13.75v7.52h-13.75Z"/>
        <path class="cls-2" d="M372.23,223.29h12.07l2.62,6,2.56-6h12.07l-10.2,23.52h-8.93l-10.2-23.52Z"/>
        <path class="cls-2" d="M415.86,223.29v23.52h-12.07v-23.52c1.59.9,3.65,1.35,6.19,1.35,2.36,0,4.32-.45,5.88-1.35ZM412.38,223.37c-.94,0-1.75-.34-2.42-1.02s-1.02-1.48-1.02-2.42.34-1.74,1.02-2.4,1.48-1,2.42-1,1.74.33,2.4,1,1,1.46,1,2.4-.33,1.75-1,2.42-1.46,1.02-2.4,1.02Z"/>
        <path class="cls-2" d="M418.38,244.52l2.7-6.6c.83,1.12,1.84,2,3.01,2.63s2.32.95,3.46.95c.7,0,1.27-.16,1.69-.47s.63-.72.63-1.21-.18-.9-.54-1.26-1.31-.76-2.84-1.2c-1.55-.44-2.82-.93-3.81-1.46s-1.81-1.31-2.47-2.33-.99-2.15-.99-3.36c0-2.34,1.01-4.16,3.02-5.46s4.83-1.94,8.47-1.94c4.09,0,7.58.67,10.49,2.01l-2.89,6c-1.9-1.71-3.74-2.56-5.51-2.56-.59,0-1.06.13-1.43.39s-.55.59-.55,1c0,.48.19.9.56,1.25s1.36.73,2.96,1.13c1.63.4,2.97.87,4.03,1.39s1.91,1.3,2.54,2.34.95,2.23.95,3.57c0,2.42-.98,4.33-2.94,5.73s-4.5,2.1-7.61,2.1c-4.22,0-8.53-.88-12.93-2.64Z"/>
        <path class="cls-2" d="M472.4,223.29v23.52h-11.56v-4.12h-.08c-1.18,1.5-2.4,2.59-3.63,3.28s-2.71,1.04-4.41,1.04c-2.46,0-4.44-.73-5.95-2.19s-2.26-3.5-2.26-6.13v-15.39h11.41v12.68c0,2.14.73,3.2,2.19,3.2.98,0,1.71-.42,2.21-1.25v-14.63h12.09Z"/>
        <path class="cls-2" d="M477.31,232.96v-7.07c3.41-1.86,7.28-2.79,11.6-2.79s7.15.88,9.1,2.64,2.93,4.45,2.93,8.07v13.01h-12.07v-1.76c-1.78,1.3-3.74,1.95-5.88,1.95-1.8,0-3.29-.58-4.49-1.75s-1.8-2.63-1.8-4.4c0-2.02.74-3.66,2.23-4.93s3.42-1.9,5.82-1.9c1.41,0,2.78.18,4.12.55,0-1.09-.42-1.95-1.26-2.56s-2.01-.92-3.51-.92c-2.21,0-4.48.62-6.8,1.88ZM488.87,241.61v-3.28c-.73-.25-1.39-.37-1.97-.37-.73,0-1.32.19-1.76.57s-.66.87-.66,1.48.24,1.17.71,1.6,1.08.64,1.81.64,1.37-.21,1.88-.64Z"/>
        <path class="cls-2" d="M517.5,246.8h-12.07v-29.8h12.07v29.8Z"/>
        <path class="cls-2" d="M559.59,237.84v4.12c-2.64,3.46-6.45,5.2-11.41,5.2-4.09,0-7.38-1.14-9.86-3.41s-3.73-5.26-3.73-8.97,1.14-6.41,3.43-8.63,5.25-3.34,8.9-3.34c1.86,0,3.59.31,5.18.94s2.96,1.54,4.12,2.75,2.01,2.62,2.56,4.22.82,3.55.82,5.86h-12.32c.44,1.2,1.18,2.14,2.23,2.81s2.23,1.02,3.57,1.02c2.71,0,4.88-.85,6.52-2.56ZM546.54,232.45h5.68c-.05-1.17-.34-2.09-.87-2.74s-1.21-.99-2.06-.99c-.74,0-1.39.32-1.93.95s-.82,1.56-.82,2.78Z"/>
        <path class="cls-2" d="M590.88,217v29.8h-14.36c-4.39,0-7.79-1.13-10.21-3.4s-3.63-5.12-3.63-8.55,1.1-6.14,3.31-8.39,4.96-3.37,8.25-3.37c1.82,0,3.34.28,4.55.84v-6.93h12.09ZM578.79,238.25v-5.29c-.6-.39-1.28-.59-2.03-.59-.72,0-1.31.28-1.78.85s-.7,1.28-.7,2.14c0,1,.28,1.74.85,2.2s1.47.69,2.71.69h.96Z"/>
        <path class="cls-2" d="M607.54,223.29v23.52h-12.07v-23.52c1.59.9,3.65,1.35,6.19,1.35,2.36,0,4.32-.45,5.88-1.35ZM604.06,223.37c-.94,0-1.75-.34-2.42-1.02s-1.02-1.48-1.02-2.42.34-1.74,1.02-2.4,1.48-1,2.42-1,1.74.33,2.4,1,1,1.46,1,2.4-.33,1.75-1,2.42-1.46,1.02-2.4,1.02Z"/>
        <path class="cls-2" d="M630.98,223.29v6.6h-5.04v5.04c0,1.71.76,2.56,2.29,2.56,1.12,0,2.08-.56,2.89-1.68v9.32c-1.9,1.25-4.21,1.88-6.93,1.88-2.9,0-5.35-.87-7.33-2.6s-2.98-4.11-2.98-7.15v-7.36h-4.92l16.99-13.32v6.72h5.04Z"/>
        <path class="cls-2" d="M646.7,247.16c-3.72,0-6.79-1.12-9.21-3.37s-3.62-5.17-3.62-8.78,1.19-6.54,3.57-8.81,5.47-3.4,9.26-3.4,6.92,1.13,9.31,3.4,3.58,5.2,3.58,8.81-1.19,6.52-3.58,8.77-5.49,3.38-9.31,3.38ZM646.7,232.08c-.78,0-1.42.25-1.9.75s-.73,1.15-.73,1.94.24,1.44.73,1.93,1.12.74,1.9.74,1.44-.25,1.93-.74.74-1.14.74-1.93-.25-1.46-.74-1.95-1.14-.74-1.93-.74Z"/>
        <path class="cls-2" d="M675.43,228.45c1.54-3.57,3.76-5.35,6.68-5.35,1.63,0,2.97.53,4.02,1.6s1.58,2.42,1.58,4.06-.52,3.11-1.55,4.17-2.39,1.59-4.05,1.59c-1.9,0-3.53-.72-4.88-2.15-1.2,1.02-1.8,2.9-1.8,5.66v8.77h-12.07v-23.52h12.07v5.16Z"/>
      </g>
    </g>
  </g>
</svg>