<svg width="25" height="20" viewBox="0 0 25 20" fill="none" xmlns="http://www.w3.org/2000/svg">
<path d="M25 4.4187V16.25C25.0001 17.2065 24.6346 18.1268 23.9784 18.8228C23.3222 19.5187 22.4249 19.9376 21.47 19.9937L21.25 20H3.75C2.79349 20 1.87311 19.6345 1.17717 18.9783C0.481241 18.3221 0.0623656 17.4248 0.00625014 16.47L0 16.25V4.4187L11.8062 12.29L11.9512 12.3725C12.1221 12.4559 12.3098 12.4993 12.5 12.4993C12.6902 12.4993 12.8779 12.4559 13.0488 12.3725L13.1938 12.29L25 4.4187Z" fill="#B800FF"/>
<path d="M21.2501 0C22.6001 0 23.7839 0.7125 24.4439 1.78375L12.5001 9.74625L0.556396 1.78375C0.869887 1.27478 1.30051 0.848126 1.81236 0.539362C2.32421 0.230598 2.90246 0.0486716 3.4989 0.00874996L3.75015 0H21.2501Z" fill="#B800FF"/>
</svg>
