<svg width="26" height="26" viewBox="0 0 26 26" fill="none" xmlns="http://www.w3.org/2000/svg">
<path fill-rule="evenodd" clip-rule="evenodd" d="M19.0151 25.8503C17.1508 25.7817 11.8675 25.0515 6.33426 19.5196C0.802333 13.9864 0.0734596 8.70433 0.00354986 6.83878C-0.10002 3.99578 2.07754 1.23435 4.59299 0.15593C4.8959 0.0251299 5.22762 -0.0246696 5.55558 0.0114181C5.88355 0.0475057 6.1965 0.16824 6.46372 0.361775C8.53512 1.87131 9.96439 4.15502 11.1917 5.95067C11.4617 6.34518 11.5772 6.82525 11.5161 7.2994C11.4549 7.77356 11.2215 8.20865 10.8603 8.52179L8.33446 10.3977C8.21243 10.4858 8.12653 10.6152 8.09272 10.7619C8.05891 10.9086 8.07948 11.0625 8.15062 11.1952C8.72284 12.2348 9.74042 13.7831 10.9056 14.9483C12.0707 16.1135 13.6929 17.1984 14.805 17.8353C14.9444 17.9136 15.1085 17.9355 15.2636 17.8965C15.4187 17.8574 15.5529 17.7605 15.6387 17.6256L17.2829 15.1231C17.5852 14.7215 18.0311 14.4526 18.5273 14.3724C19.0234 14.2923 19.5313 14.4073 19.9446 14.6933C21.7662 15.9542 23.892 17.3589 25.4481 19.3513C25.6573 19.6205 25.7904 19.9409 25.8335 20.2791C25.8765 20.6173 25.8279 20.9608 25.6928 21.2738C24.6092 23.8022 21.8672 25.9552 19.0151 25.8503Z" fill="white"/>
</svg>
