<?xml version="1.0" encoding="UTF-8"?>
<svg id="Calque_2" xmlns="http://www.w3.org/2000/svg" viewBox="0 0 113.5 113.5">
  <defs>
    <style>
      .cls-1 {
        fill: #262324;
      }

      .cls-2 {
        fill: #005061;
      }

      .cls-3 {
        fill: #fffeef;
      }

      .cls-4 {
        fill: #f0b035;
      }
    </style>
  </defs>
  <g id="Calque_1-2" data-name="Calque_1">
    <g>
      <rect class="cls-3" width="113.5" height="113.5"/>
      <g>
        <path class="cls-2" d="M20.49,35.57v3.98c0,.44-.13.67-.38.67-.11,0-.23-.07-.37-.2-.13-.13-.27-.28-.41-.44-.14-.16-.37-.31-.7-.44-.33-.13-.71-.2-1.16-.2h-5.76c-.38,0-.68.14-.91.43s-.34.6-.34.94v1.03c0,.18.07.27.22.27.07,0,.29-.1.68-.31.38-.21.8-.31,1.26-.31.58,0,1.36.23,2.34.68.98.45,1.68.68,2.07.68.3,0,.56-.11.79-.33s.37-.33.43-.33c.28,0,.42.32.42.95,0,.3-.06.6-.17.92-.11.31-.27.61-.48.9s-.51.52-.89.71c-.38.18-.82.27-1.31.27-.45,0-.9-.1-1.33-.31-.43-.21-.8-.45-1.11-.75-.31-.29-.61-.59-.89-.89-.28-.3-.57-.55-.85-.76s-.55-.31-.81-.31c-.09,0-.17.03-.25.1s-.12.17-.12.32c0,.6.08,1.15.24,1.65.16.5.37.92.63,1.27.26.34.55.67.87.97.32.3.63.58.95.85.32.27.6.54.87.81.26.27.47.59.63.96.16.37.24.77.24,1.2,0,.4-.11.78-.32,1.14-.21.36-.5.54-.87.54h-4.75c.39-.39.58-1.04.58-1.97v-12.73c0-.5-.05-.9-.15-1.2-.1-.3-.28-.55-.55-.77h11.65Z"/>
        <path class="cls-2" d="M23.28,42.11c1.05-1.19,2.52-1.78,4.41-1.78,1.42,0,2.55.44,3.39,1.32.84.88,1.26,1.92,1.26,3.13,0,.38-.06.7-.19.98-.13.28-.33.49-.61.65-.28.16-.56.28-.85.37-.29.09-.66.14-1.12.16-.45.02-.85.02-1.2.02-.34,0-.79-.02-1.32-.03-.54-.02-.96-.03-1.28-.03-.26,0-.38.09-.38.27,0,.2.24.48.73.85.49.37,1.1.7,1.85,1.01.74.31,1.42.46,2.02.46.47,0,.85-.07,1.16-.22.31-.14.53-.29.68-.43.15-.14.26-.22.33-.22.18,0,.27.12.27.35,0,.33-.09.7-.28,1.09-.19.39-.46.78-.82,1.15-.35.37-.84.68-1.46.92-.62.24-1.3.37-2.06.37-1.63,0-3.06-.56-4.27-1.68-1.22-1.12-1.82-2.48-1.82-4.09,0-1.89.53-3.43,1.58-4.62ZM24.15,42.56c-.39.28-.58.65-.58,1.11,0,.65.16,1.22.48,1.7.32.48.79.72,1.43.72.45,0,.86-.01,1.21-.04.35-.03.7-.08,1.07-.16.36-.08.64-.21.84-.38.2-.18.3-.4.3-.67,0-.8-.37-1.45-1.1-1.95-.73-.5-1.5-.75-2.3-.75-.5,0-.94.14-1.33.43h0ZM24.81,39.26c-.11-.22-.16-.43-.17-.63,0-.19.04-.31.14-.34.01,0,.06.01.16.04s.19.04.28.04c.22,0,.54-.16.96-.47.42-.31.71-.47.89-.47s.48.16.89.47c.42.31.74.47.96.47.08,0,.16-.01.26-.04.09-.03.15-.04.17-.04.1.03.15.15.14.34s-.06.4-.17.63c-.11.22-.22.33-.34.33-.23,0-.46-.14-.69-.43-.23-.28-.44-.57-.65-.86s-.4-.43-.58-.43-.37.14-.57.43-.42.57-.65.86c-.23.28-.46.43-.69.43-.12,0-.24-.11-.34-.33h0Z"/>
        <path class="cls-2" d="M34.64,40.03c.57-.36,1.09-.76,1.56-1.2.47-.44.92-.84,1.35-1.2.43-.36.72-.54.87-.54.21,0,.32.13.32.4v3.08h1.43v.83h-1.43v7.52c0,.07,0,.2,0,.38,0,.18.01.31.02.39,0,.08.02.19.04.34.02.15.05.27.07.35l.1.3c.04.12.08.21.13.28.05.07.11.15.18.22.07.08.15.14.24.2.02.01.17.04.43.1-.04.29-.25.53-.63.71-.37.18-.77.28-1.19.28-.62,0-1.16-.09-1.61-.28-.45-.18-.8-.42-1.06-.7-.26-.28-.46-.64-.62-1.08-.16-.43-.26-.85-.3-1.25-.04-.4-.07-.85-.07-1.37v-5.35c0-.18,0-.31,0-.39,0-.08-.03-.19-.07-.32-.04-.13-.12-.22-.23-.28-.11-.06-.26-.08-.45-.08h-.52v-.83c.38,0,.85-.18,1.43-.54h0Z"/>
        <path class="cls-2" d="M42.12,42.11c1.05-1.19,2.52-1.78,4.41-1.78,1.42,0,2.55.44,3.39,1.32.84.88,1.26,1.92,1.26,3.13,0,.38-.06.7-.19.98-.13.28-.33.49-.61.65-.28.16-.56.28-.85.37-.29.09-.66.14-1.12.16-.45.02-.85.02-1.2.02-.34,0-.79-.02-1.32-.03s-.96-.03-1.28-.03c-.26,0-.38.09-.38.27,0,.2.24.48.73.85.49.37,1.1.7,1.85,1.01.74.31,1.42.46,2.02.46.47,0,.85-.07,1.16-.22.31-.14.53-.29.68-.43.15-.14.26-.22.33-.22.18,0,.27.12.27.35,0,.33-.09.7-.28,1.09-.19.39-.46.78-.82,1.15-.35.37-.84.68-1.46.92-.62.24-1.3.37-2.06.37-1.63,0-3.06-.56-4.27-1.68-1.22-1.12-1.82-2.48-1.82-4.09,0-1.89.53-3.43,1.58-4.61ZM42.89,45.37c.32.48.79.72,1.43.72.45,0,.86-.01,1.21-.04.35-.03.7-.08,1.07-.16.36-.08.64-.21.84-.38.2-.18.3-.4.3-.67,0-.8-.37-1.45-1.1-1.95-.73-.5-1.5-.75-2.3-.75-.5,0-.94.14-1.33.43-.39.28-.58.65-.58,1.11,0,.65.16,1.22.48,1.7h0Z"/>
        <path class="cls-2" d="M60.04,50.82c-.84-1.11-1.27-2.5-1.27-4.18,0-.78.09-1.53.28-2.26.19-.73.47-1.4.83-2.02.37-.62.86-1.11,1.48-1.48.62-.37,1.33-.56,2.12-.56.42,0,.81.07,1.17.21.35.14.63.29.81.45s.35.31.5.45c.15.14.26.21.32.21.18,0,.27-.14.27-.43v-2.33c0-.69-.24-1.12-.72-1.28-.17-.06-.25-.13-.25-.23,0-.08.06-.15.18-.22.08-.03.36-.16.86-.39.49-.23.95-.44,1.38-.63.43-.19.89-.38,1.38-.54.49-.17.85-.25,1.08-.25.16,0,.27.04.35.11.08.07.12.14.13.22.01.07.02.18.02.33v14.29c0,.92.19,1.58.58,1.97h-4.08c-.34,0-.58-.11-.72-.34-.13-.23-.2-.57-.2-1.03v-.17c0-.17-.07-.19-.2-.07l-.1.13c-.7,1.14-1.62,1.72-2.77,1.72-1.45,0-2.6-.55-3.45-1.67h0ZM63.17,46.17c0,.62.01,1.13.04,1.51.03.38.1.81.22,1.29.12.48.31.84.59,1.07.28.24.63.36,1.07.36.98,0,1.47-.88,1.47-2.63v-3.25c0-.26-.02-.5-.05-.75-.03-.24-.09-.5-.16-.78-.07-.28-.19-.5-.37-.67-.17-.17-.38-.25-.63-.25-1.45,0-2.18,1.37-2.18,4.1Z"/>
        <path class="cls-2" d="M74.09,42.11c1.05-1.19,2.52-1.78,4.41-1.78,1.42,0,2.55.44,3.39,1.32.84.88,1.26,1.92,1.26,3.13,0,.38-.06.7-.19.98-.13.28-.33.49-.61.65-.28.16-.56.28-.85.37-.29.09-.66.14-1.12.16-.45.02-.85.02-1.2.02-.34,0-.79-.02-1.32-.03-.54-.02-.96-.03-1.28-.03-.25,0-.38.09-.38.27,0,.2.24.48.73.85.49.37,1.1.7,1.85,1.01.74.31,1.42.46,2.02.46.47,0,.85-.07,1.16-.22.31-.14.53-.29.68-.43.15-.14.26-.22.33-.22.18,0,.27.12.27.35,0,.33-.09.7-.28,1.09-.19.39-.46.78-.82,1.15-.35.37-.84.68-1.46.92-.62.24-1.3.37-2.06.37-1.63,0-3.06-.56-4.27-1.68-1.22-1.12-1.82-2.48-1.82-4.09,0-1.89.53-3.43,1.58-4.61ZM74.86,45.37c.32.48.79.72,1.43.72.45,0,.86-.01,1.21-.04.35-.03.7-.08,1.07-.16.36-.08.64-.21.84-.38.2-.18.3-.4.3-.67,0-.8-.37-1.45-1.1-1.95-.73-.5-1.5-.75-2.3-.75-.5,0-.94.14-1.33.43-.39.28-.58.65-.58,1.11,0,.65.16,1.22.48,1.7h0Z"/>
        <path class="cls-2" d="M84.75,42.18c.32-.48.74-.85,1.28-1.12s1.1-.45,1.7-.57c.59-.12,1.23-.17,1.91-.17,1.43,0,2.68.21,3.75.63,1.07.42,1.6.88,1.6,1.38,0,.53-.18,1.04-.53,1.53-.35.49-.69.73-1.02.73-.49,0-1.01-.17-1.56-.52-.55-.34-1.03-.72-1.44-1.13-.41-.4-.88-.78-1.41-1.13-.53-.34-1.03-.52-1.49-.52-.34,0-.65.1-.92.29-.27.19-.41.48-.41.86s.22.67.65.88c.43.21,1.05.38,1.87.52.69.12,1.29.24,1.79.37.51.12,1.06.31,1.66.55.6.24,1.09.52,1.46.83.37.3.69.7.94,1.19.26.49.38,1.04.38,1.67,0,.73-.17,1.37-.51,1.92-.34.55-.77.97-1.3,1.26-.53.29-1.06.5-1.6.64-.54.14-1.07.21-1.59.21-1.24,0-2.49-.15-3.73-.45-1.24-.3-1.87-.65-1.87-1.05,0-.42.19-1.05.57-1.87.38-.83.72-1.24,1.03-1.24.21,0,.51.11.9.34.39.23.79.48,1.2.76.41.28.95.53,1.62.76.67.23,1.34.34,2.03.34.6,0,1.14-.15,1.62-.45.48-.3.73-.66.73-1.08,0-.34-.23-.52-.7-.52-.16,0-.55.04-1.19.11-.64.07-1.2.11-1.68.11-.57,0-1.13-.04-1.68-.13-.55-.09-1.11-.24-1.67-.46-.55-.22-1.04-.48-1.46-.8-.42-.32-.75-.73-1.02-1.24-.26-.51-.39-1.08-.39-1.7,0-.67.16-1.24.48-1.73h0Z"/>
        <path class="cls-4" d="M20.49,56.59v3.98c0,.44-.13.67-.38.67-.11,0-.23-.07-.37-.2-.13-.13-.27-.28-.41-.44-.14-.16-.37-.31-.7-.44-.33-.13-.71-.2-1.16-.2h-5.76c-.38,0-.68.14-.91.43-.23.28-.34.6-.34.94v1.03c0,.18.07.27.22.27.07,0,.29-.1.68-.31.38-.21.8-.31,1.26-.31.58,0,1.36.23,2.34.68.98.45,1.68.68,2.07.68.3,0,.56-.11.79-.33.23-.22.37-.33.43-.33.28,0,.42.32.42.95,0,.3-.06.6-.17.92-.11.31-.27.61-.48.9-.21.29-.51.52-.89.71-.38.18-.82.27-1.31.27-.45,0-.9-.1-1.33-.31s-.8-.45-1.11-.75-.61-.59-.89-.89c-.28-.3-.57-.55-.85-.76-.28-.21-.55-.31-.81-.31-.09,0-.17.03-.25.1-.08.07-.12.17-.12.32,0,.6.08,1.15.24,1.65.16.5.37.92.63,1.27.26.34.55.67.87.97.32.3.63.58.95.85s.6.54.87.81c.26.27.47.59.63.96.16.37.24.77.24,1.2,0,.4-.11.78-.32,1.14-.21.36-.5.54-.87.54h-4.75c.39-.39.58-1.04.58-1.97v-12.73c0-.5-.05-.9-.15-1.2-.1-.3-.28-.55-.55-.77h11.65Z"/>
        <path class="cls-4" d="M21.12,58.38c0-.08.06-.15.18-.22,2.49-1.21,4.05-1.82,4.7-1.82.16,0,.27.04.35.11.08.07.12.14.13.22.01.07.02.18.02.33v14.29c0,.92.19,1.58.58,1.97h-4.08c-.34,0-.58-.11-.72-.34-.13-.23-.2-.57-.2-1.03v-12.21s0-.09,0-.16c0-.07-.01-.13-.02-.17-.01-.04-.03-.1-.05-.18-.02-.07-.05-.13-.09-.18-.04-.05-.08-.1-.13-.15-.05-.05-.11-.09-.18-.13-.07-.04-.14-.07-.23-.09-.17-.06-.25-.13-.25-.23h0Z"/>
        <path class="cls-4" d="M29.71,63.12c1.05-1.19,2.52-1.78,4.41-1.78,1.42,0,2.55.44,3.39,1.32.84.88,1.26,1.92,1.26,3.13,0,.38-.06.7-.19.98-.13.28-.33.49-.61.65-.28.16-.56.28-.85.37-.29.09-.66.14-1.12.16-.45.02-.85.02-1.2.02-.34,0-.79-.02-1.32-.03-.54-.02-.96-.03-1.28-.03-.26,0-.38.09-.38.27,0,.2.24.48.73.85.49.37,1.1.7,1.85,1.01.74.3,1.42.46,2.02.46.47,0,.85-.07,1.16-.22.31-.14.53-.29.68-.43.15-.14.26-.22.32-.22.18,0,.27.12.27.35,0,.33-.09.7-.28,1.09-.19.39-.46.78-.82,1.15-.35.37-.84.68-1.46.92-.62.24-1.3.37-2.06.37-1.63,0-3.06-.56-4.27-1.68-1.22-1.12-1.82-2.48-1.82-4.09,0-1.89.53-3.43,1.58-4.62h0ZM30.47,66.39c.32.48.79.72,1.43.72.45,0,.86-.01,1.21-.04.35-.03.7-.08,1.07-.16.36-.08.64-.21.84-.38.2-.18.3-.4.3-.67,0-.8-.37-1.45-1.1-1.95-.73-.5-1.5-.75-2.3-.75-.5,0-.94.14-1.33.43-.39.28-.58.65-.58,1.11,0,.65.16,1.22.48,1.7h0Z"/>
        <path class="cls-4" d="M45.31,61.59c-.39.39-.58,1.04-.58,1.97v5.41c0,.99.32,1.48.95,1.48.98,0,1.47-.79,1.47-2.37v-4.53c0-.92-.19-1.58-.58-1.97h5.58c-.39.39-.58,1.04-.58,1.97v7.73c0,.92.19,1.58.58,1.97h-4.08c-.34,0-.58-.12-.72-.35-.13-.23-.2-.58-.2-1.03v-.28c0-.27-.04-.4-.12-.4-.12,0-.25.08-.38.24-.13.16-.29.35-.47.58-.18.22-.38.45-.62.67-.23.23-.56.42-.97.58-.42.16-.89.24-1.41.24-1.9,0-2.85-1.3-2.85-3.92l-.02-3.18v-2.85c0-.92-.19-1.58-.58-1.97h5.58Z"/>
        <path class="cls-4" d="M53.52,71.29v-7.73c0-.92-.19-1.58-.58-1.97h4.08c.34,0,.58.12.72.35.13.23.2.58.2,1.03v.28c0,.27.04.4.12.4.1,0,.21-.08.34-.24.13-.16.27-.35.43-.58.16-.23.35-.45.58-.67.23-.22.54-.41.93-.58.39-.16.83-.24,1.32-.24s.97.09,1.42.27c.44.18.67.43.67.73,0,.07-.3.7-.9,1.9-.04.1-.11.23-.19.39-.08.16-.15.29-.19.37-.04.09-.1.2-.17.33-.07.13-.12.23-.17.3-.04.07-.09.14-.15.21-.06.07-.11.12-.15.15-.04.03-.09.05-.13.05-.16,0-.29-.07-.42-.22-.12-.15-.23-.32-.32-.51-.09-.19-.26-.36-.5-.51-.24-.15-.55-.22-.92-.22-1.07,0-1.6.73-1.6,2.18v4.53c0,.92.19,1.58.58,1.97h-5.58c.39-.39.58-1.04.58-1.97h0Z"/>
        <path class="cls-4" d="M64.84,63.2c.32-.48.74-.85,1.28-1.12.54-.26,1.1-.45,1.7-.57.59-.12,1.23-.17,1.91-.17,1.43,0,2.68.21,3.75.63,1.07.42,1.6.88,1.6,1.38,0,.53-.18,1.04-.53,1.53-.36.49-.69.73-1.02.73-.49,0-1.01-.17-1.56-.52-.55-.34-1.03-.72-1.44-1.13-.41-.4-.88-.78-1.41-1.13-.53-.34-1.03-.52-1.49-.52-.34,0-.65.1-.92.29-.27.19-.41.48-.41.86s.22.67.65.88c.43.21,1.05.38,1.87.52.69.12,1.29.24,1.79.37.51.12,1.06.31,1.66.55.6.24,1.09.52,1.46.83.37.31.69.7.94,1.19.25.49.38,1.04.38,1.67,0,.73-.17,1.37-.51,1.92-.34.55-.77.97-1.3,1.26-.53.29-1.06.5-1.6.64-.54.14-1.07.21-1.59.21-1.24,0-2.49-.15-3.73-.45-1.24-.3-1.87-.65-1.87-1.05,0-.42.19-1.05.57-1.87.38-.83.72-1.24,1.03-1.24.21,0,.51.11.9.34.39.23.79.48,1.2.76.41.28.95.53,1.62.76.67.23,1.34.34,2.03.34.6,0,1.14-.15,1.62-.45.48-.3.73-.66.73-1.08,0-.34-.23-.52-.7-.52-.16,0-.55.04-1.19.11-.64.07-1.2.11-1.68.11-.57,0-1.13-.04-1.68-.13-.55-.09-1.11-.24-1.67-.46-.55-.22-1.04-.48-1.46-.8s-.75-.73-1.02-1.24c-.26-.51-.39-1.08-.39-1.7,0-.67.16-1.24.48-1.72h0Z"/>
        <path class="cls-1" d="M86.23,76.99c-.29-.12-.44-.45-.34-.75,2.15-6.23,4.55-9.64,4.65-9.78.19-.27.57-.33.84-.14.27.19.33.57.14.84-.02.03-2.41,3.42-4.5,9.47-.11.32-.45.48-.77.37-.01,0-.02,0-.04-.01h0Z"/>
        <path class="cls-3" d="M85.64,74.54s-2.82-1.72-3.9.88c0,0,2.42,2.26,5.61,2.31l.83-2.67-2.17-.88-.38.36h0Z"/>
        <path class="cls-1" d="M87.35,77.85h0c-3.2-.05-5.67-2.32-5.7-2.34-.04-.04-.05-.09-.03-.14.3-.73.77-1.2,1.39-1.4,1.08-.35,2.28.23,2.61.42l.31-.3s.09-.04.14-.03l2.17.88c.06.03.09.09.07.16l-.83,2.67c-.02.05-.07.09-.12.09h0ZM81.89,75.38c.4.35,2.6,2.13,5.37,2.21l.77-2.47-1.98-.8-.32.31s-.11.05-.16.02c-.01,0-1.36-.81-2.49-.44-.52.17-.92.56-1.19,1.17Z"/>
        <path class="cls-3" d="M82.1,74.79c-.12.18-.25.38-.36.63,0,0,2.42,2.26,5.61,2.31l.21-.68c-2.82-.1-5.12-1.89-5.46-2.26h0Z"/>
        <path class="cls-1" d="M87.35,77.85h0c-3.2-.05-5.67-2.32-5.7-2.34-.04-.04-.05-.1-.03-.15.12-.24.24-.46.37-.65.02-.03.06-.05.1-.05.04,0,.08.01.1.04.3.33,2.55,2.11,5.37,2.22.04,0,.08.02.1.05.02.03.03.07.02.11l-.21.68c-.02.05-.07.09-.12.09h0ZM81.9,75.39c.42.36,2.6,2.13,5.36,2.21l.13-.43c-2.59-.15-4.7-1.67-5.27-2.18-.08.12-.15.26-.23.4Z"/>
        <path class="cls-3" d="M87.11,73.37s-1.28-.47-1.54.36c-.26.83,2.52,2.07,3.04,1.41.6-.77-.67-1.3-.67-1.3,0,0-.12.38-.62.14-.5-.24-.21-.62-.21-.62Z"/>
        <path class="cls-1" d="M88.08,75.46c-.5,0-1.13-.23-1.57-.46-.79-.42-1.19-.9-1.06-1.31.07-.22.2-.38.4-.48.51-.25,1.27.02,1.3.03.04.01.07.05.08.08.01.04,0,.08-.02.11,0,0-.08.11-.05.22.02.08.09.15.22.21.14.07.25.08.34.05.08-.03.11-.11.11-.11.01-.03.04-.06.07-.08.03-.02.07-.02.1,0,.03.01.75.32.89.84.06.22,0,.44-.17.66-.13.17-.36.24-.63.24h0ZM86.37,73.36c-.14,0-.29.02-.41.08-.13.07-.22.17-.27.33-.08.26.29.67.94,1,.81.42,1.67.56,1.88.29.12-.15.16-.29.12-.43-.07-.27-.42-.51-.64-.62-.04.05-.1.11-.18.14-.15.07-.34.05-.55-.05-.2-.09-.32-.22-.35-.38-.02-.1,0-.2.02-.27-.13-.04-.34-.08-.55-.08Z"/>
        <path class="cls-1" d="M98.87,74.05c-.11.06-.24.09-.38.07-2.74-.32-4.39-.5-5.69-1.86-.43-.45-.65-1.02-.63-1.67.05-1.98,2.27-4.14,2.52-4.38.25-.24.65-.23.89.02.24.25.23.65-.02.89-.58.55-2.1,2.26-2.13,3.5,0,.31.08.55.28.76.94.98,2.19,1.16,4.92,1.48.35.04.59.35.55.7-.02.21-.15.39-.32.48Z"/>
        <path class="cls-3" d="M96.83,74.76s-1.6,2.54,1.61,3.29c0,0,1.91-2.5,1.25-5.76l-2.91-.25-.41,2.41.46.3Z"/>
        <path class="cls-1" d="M98.44,78.18s-.02,0-.03,0c-1.04-.24-1.71-.7-1.98-1.36-.34-.83.06-1.72.22-2.02l-.36-.24s-.06-.08-.06-.13l.41-2.41c.01-.07.07-.11.14-.11l2.91.25c.06,0,.1.05.11.1.67,3.28-1.25,5.84-1.27,5.86-.02.03-.06.05-.1.05h0ZM96.51,74.4l.39.26c.06.04.07.12.04.17,0,.01-.63,1.02-.26,1.9.23.56.81.96,1.71,1.18.29-.41,1.73-2.66,1.19-5.49l-2.7-.23-.37,2.21h0Z"/>
        <path class="cls-3" d="M97.72,77.83c.21.09.45.17.72.23,0,0,1.92-2.5,1.25-5.76l-.74-.06c.53,2.89-.93,5.16-1.23,5.59h0Z"/>
        <path class="cls-1" d="M98.44,78.18s-.02,0-.03,0c-.27-.06-.52-.14-.74-.24-.04-.02-.06-.04-.07-.08,0-.04,0-.08.02-.11.29-.42,1.73-2.65,1.21-5.49,0-.04,0-.08.03-.11.03-.03.07-.04.11-.04l.74.06c.06,0,.1.05.12.1.67,3.28-1.25,5.84-1.27,5.86-.02.03-.06.05-.1.05ZM97.92,77.76c.15.05.3.1.47.14.29-.41,1.73-2.66,1.19-5.49l-.48-.04c.42,2.64-.76,4.74-1.19,5.39Z"/>
        <path class="cls-3" d="M98,73.83s-1.03.06-1.53,1.9l1.53-1.9Z"/>
        <path class="cls-1" d="M96.47,75.86s-.02,0-.03,0c-.07-.02-.11-.09-.09-.16.52-1.91,1.6-1.99,1.65-2,.07,0,.13.05.13.12,0,.07-.05.13-.12.13-.04,0-.95.09-1.41,1.81-.02.06-.07.09-.12.09h0Z"/>
        <path class="cls-3" d="M95.3,73.53s-.19,1.41.72,1.48c.91.08,1.54-3.03.75-3.41-.92-.44-1.17.97-1.17.97,0,0,.41.04.28.6-.13.56-.58.35-.58.35Z"/>
        <path class="cls-1" d="M96.05,75.14s-.03,0-.04,0c-.24-.02-.43-.12-.58-.3-.37-.46-.26-1.3-.26-1.33,0-.04.03-.08.07-.09.04-.02.08-.02.12,0,0,0,.13.06.24,0,.08-.04.13-.13.17-.27.04-.16.03-.28-.02-.35-.05-.08-.14-.09-.15-.09-.03,0-.07-.02-.09-.05-.02-.03-.03-.06-.02-.1,0-.03.16-.84.65-1.09.21-.11.45-.1.7.02.57.28.47,1.52.27,2.28-.24.87-.62,1.37-1.04,1.37h0ZM95.42,73.69c-.01.24,0,.72.22.99.1.12.23.19.4.2.29.03.62-.45.82-1.18.25-.92.19-1.83-.13-1.98-.18-.09-.34-.1-.48-.03-.27.14-.42.55-.49.8.06.03.13.07.19.15.1.14.12.33.07.57-.05.22-.15.37-.31.44-.1.05-.2.05-.29.04h0Z"/>
        <path class="cls-1" d="M84.38,65.14c-1.24.22-2.3.04-3.14-.54-2.02-1.39-1.98-4.54-1.98-4.67,0-.33.28-.59.61-.58.33,0,.59.28.58.61,0,.03-.03,2.64,1.46,3.67.86.59,2.13.56,3.75-.11.31-.12.65.02.78.33.12.31-.02.65-.33.78-.62.25-1.2.42-1.74.52h0Z"/>
        <path class="cls-3" d="M80.57,60.36s.6-.14.4.52c-.26.82-2.19,1-2.25.1-.02-.35,1.85-.62,1.85-.62h0Z"/>
        <path class="cls-1" d="M79.65,61.71c-.07,0-.15,0-.22-.01-.5-.06-.81-.32-.83-.7-.02-.39,1.05-.62,1.95-.76.05-.01.33-.06.49.11.12.12.13.32.05.57-.16.5-.83.79-1.44.79h0ZM80.7,60.48s-.07,0-.1.01c0,0,0,0-.01,0-.87.13-1.68.36-1.74.5.02.35.43.43.61.45.55.07,1.26-.18,1.39-.6.05-.15.05-.27,0-.32-.03-.03-.1-.05-.15-.05Z"/>
        <path class="cls-3" d="M79.91,60.52s-1.19.92-1.91.08c-.72-.83-1.5-3.25-.92-3.53.58-.29,1.18,1.58,1.18,1.58,0,0-.82-2.27-.18-2.47.63-.2,1.26,2.06,1.26,2.06,0,0-.37-1.21.54-1.5.91-.29,1.63.92,1.23,1.16-.4.23-.72-.07-.72-.07,0,0,.92,2.16.33,2.44s-.81.26-.81.26h0Z"/>
        <path class="cls-1" d="M78.76,61.08c-.31,0-.61-.1-.86-.39-.6-.7-1.29-2.55-1.13-3.35.04-.19.12-.32.25-.38.11-.06.23-.06.35,0,.14.06.27.19.39.35-.07-.4-.08-.79.03-1.02.06-.11.14-.19.25-.22.11-.03.22-.02.33.04.32.17.6.74.8,1.25.08-.31.27-.6.66-.73.67-.21,1.24.3,1.43.73.13.3.09.55-.1.66-.2.11-.39.12-.54.08.26.67.69,2.02.14,2.28-.46.22-.72.26-.82.27-.28.2-.73.43-1.19.43ZM77.21,57.17s-.04,0-.07.02c-.07.03-.1.13-.11.2-.14.67.46,2.43,1.07,3.13.63.73,1.69-.07,1.73-.1.02-.02.06-.03.09-.03,0,0,.23,0,.75-.25.32-.15-.04-1.45-.39-2.27-.02-.06,0-.12.04-.16.05-.03.12-.03.16.01.01,0,.26.24.57.06.07-.04.07-.18,0-.34-.15-.34-.6-.75-1.12-.59-.71.22-.51,1.11-.46,1.3,0,.02,0,.03.01.04.02.07-.02.14-.09.16-.07.02-.14-.02-.16-.09,0-.02-.01-.04-.02-.07-.15-.51-.56-1.68-.95-1.89-.07-.04-.11-.03-.14-.02-.03,0-.06.03-.09.09-.19.37.11,1.47.3,2.04.03.09.05.16.06.18.02.07-.01.14-.08.16-.07.02-.14-.01-.16-.08-.01-.03-.03-.1-.07-.19-.18-.51-.51-1.2-.8-1.32-.03-.01-.05-.02-.07-.02h0Z"/>
        <path class="cls-3" d="M79.71,59.41s-.35-.83.98-.78c0,0-.07-.57.18-.65.25-.08.84.06.71,1.12-.13,1.06-.78,1.41-1.86,1.31"/>
        <path class="cls-1" d="M80.04,60.55c-.11,0-.22,0-.33-.02-.07,0-.12-.07-.12-.14,0-.07.07-.12.14-.12,1.08.1,1.61-.27,1.72-1.2.05-.44-.02-.76-.21-.91-.11-.09-.26-.11-.34-.08-.09.03-.12.32-.09.52,0,.04,0,.07-.03.1-.03.03-.06.04-.1.04-.43-.02-.72.06-.83.22-.11.16-.03.37-.03.37.03.07,0,.14-.07.17-.07.03-.14,0-.17-.07,0-.01-.14-.34.05-.62.15-.22.46-.33.91-.34,0-.21.02-.56.28-.65.14-.05.38-.04.58.12.18.15.38.46.3,1.14-.12.97-.66,1.44-1.66,1.44Z"/>
        <path class="cls-3" d="M79.97,57.38s.34.7.99.58l-.99-.58Z"/>
        <path class="cls-1" d="M80.81,58.1c-.62,0-.94-.64-.96-.67-.03-.06,0-.14.06-.17.06-.03.14,0,.17.06.01.03.31.61.85.51.07-.01.14.03.15.1.01.07-.03.14-.1.15-.06.01-.12.02-.17.02h0Z"/>
        <path class="cls-3" d="M77.67,58.91s.88-.59,2.21-.74l-2.21.74Z"/>
        <path class="cls-1" d="M77.67,59.04s-.08-.02-.11-.06c-.04-.06-.02-.14.03-.18.04-.02.92-.61,2.27-.77.07,0,.13.04.14.11,0,.07-.04.13-.11.14-1.29.15-2.15.72-2.15.72-.02.02-.05.02-.07.02h0Z"/>
        <path class="cls-1" d="M98.64,63.16c1.24.1,2.19.53,2.85,1.29,1.58,1.83.76,4.81.72,4.94-.09.31-.41.49-.73.4-.31-.09-.49-.41-.41-.73,0-.03.68-2.51-.48-3.85-.67-.78-1.88-1.06-3.6-.83-.32.04-.62-.18-.66-.51-.04-.32.18-.62.51-.66.65-.09,1.24-.11,1.79-.06h0Z"/>
        <path class="cls-3" d="M101.19,68.85s-.59.15-.4-.5c.24-.81,2.14-1.01,2.21-.13.03.34-1.81.63-1.81.63h0Z"/>
        <path class="cls-1" d="M101.06,68.99c-.1,0-.23-.02-.33-.12-.11-.12-.14-.31-.06-.56.17-.56.98-.85,1.63-.78.49.05.8.31.83.68.03.38-1.02.63-1.92.77-.02,0-.08.02-.16.02h0ZM102.11,67.77c-.51,0-1.08.24-1.19.61-.04.15-.05.27,0,.31.05.06.19.05.24.03,0,0,0,0,.01,0,.85-.13,1.65-.37,1.7-.51-.03-.34-.43-.42-.6-.44-.05,0-.11,0-.16,0Z"/>
        <path class="cls-3" d="M101.97,68.47s-.87-.09-1.3.55c-.43.64-1.26.88-1.26,1.32,0,.62.72.47,1.48.02,0,0,.86,2.54,1.54,2.73.87.25-.29-2.27-.29-2.27,0,0,.94,2.4,1.39,2.05.36-.28-.57-2.46-.57-2.46,0,0,.74,2.36,1.5,1.78.32-.24-.25-1.22-.41-2.31-.2-1.37-.78-1.7-1.06-1.78-.61-.17-1.01.36-1.01.36h0Z"/>
        <path class="cls-1" d="M102.53,73.23s-.09,0-.15-.02c-.65-.19-1.36-2.09-1.57-2.67-.39.21-.96.45-1.3.26-.11-.06-.23-.19-.23-.47,0-.3.27-.5.58-.73.24-.18.51-.38.7-.65.4-.59,1.12-.62,1.35-.61.13-.15.53-.52,1.1-.35.34.1.95.48,1.15,1.89.06.43.19.84.3,1.2.19.6.32,1.03.06,1.23-.15.11-.32.14-.48.09-.13-.04-.26-.14-.38-.27.08.4.09.74-.06.86-.08.06-.17.08-.26.05-.15-.04-.32-.22-.48-.45.03.24.02.44-.08.55-.04.05-.12.11-.24.11h0ZM100.88,70.22s.03,0,.04,0c.04.01.06.04.08.08.32.96,1,2.52,1.45,2.65.04.01.1.02.12,0,.12-.14-.04-.78-.3-1.46-.13-.29-.23-.53-.27-.64-.03-.06,0-.14.07-.16.06-.03.14,0,.17.06.06.14.17.37.28.65.3.65.67,1.3.88,1.36.02,0,.03,0,.03,0,.11-.09-.02-.72-.29-1.49-.18-.39-.3-.75-.32-.83-.02-.07.01-.13.08-.16.06-.02.14,0,.16.07.09.21.21.51.33.83.2.43.47.86.73.95.09.03.17.01.25-.05.12-.09-.02-.52-.15-.94-.12-.37-.25-.79-.31-1.24-.19-1.32-.74-1.61-.97-1.68-.51-.15-.85.3-.87.32-.03.04-.07.06-.12.05,0,0-.8-.07-1.18.49-.21.31-.5.53-.76.72-.26.19-.48.35-.48.53,0,.19.08.23.1.24.19.11.65-.02,1.18-.33.02-.01.04-.02.06-.02h0Z"/>
        <path class="cls-3" d="M103.37,70.05s-.47.58-1.65.88l1.65-.88Z"/>
        <path class="cls-1" d="M101.72,71.05c-.06,0-.11-.04-.12-.1-.02-.07.03-.14.09-.16,1.12-.28,1.58-.83,1.58-.83.04-.06.13-.06.18-.02.06.04.06.12.02.18-.02.03-.51.62-1.72.92-.01,0-.02,0-.03,0h0Z"/>
        <path class="cls-3" d="M101.88,68.56s-.27.27-.13.76l.13-.76Z"/>
        <path class="cls-1" d="M101.75,69.45c-.06,0-.11-.04-.12-.09-.15-.55.15-.87.17-.88.05-.05.13-.05.18,0,.05.05.05.13,0,.18,0,.01-.21.23-.1.63.02.07-.02.14-.09.16-.01,0-.02,0-.03,0h0Z"/>
        <path class="cls-3" d="M100.9,70.07c0,.25.05.51.16.74l-.16-.74Z"/>
        <path class="cls-1" d="M101.06,70.94s-.09-.03-.11-.07c-.11-.24-.17-.51-.17-.8,0-.07.06-.13.13-.13h0c.07,0,.13.06.13.13,0,.24.05.48.14.68.03.06,0,.14-.06.17-.02,0-.04.01-.05.01h0Z"/>
        <path class="cls-3" d="M91.28,69.55c-.93-1.91-.44-4.06,1.08-4.8,1.52-.74,3.51.21,4.43,2.13.93,1.91-.81,1.7-2.34,2.44-1.52.74-2.25,2.15-3.18.24Z"/>
        <path d="M92.28,70.58c-.06,0-.12,0-.18-.02-.32-.08-.59-.39-.87-.97-.45-.94-.59-1.96-.38-2.88.21-.92.74-1.63,1.49-2,1.55-.75,3.58.22,4.52,2.15.27.55.33.96.2,1.27-.19.44-.75.62-1.41.82-.36.11-.77.24-1.16.43-.39.19-.74.43-1.04.64-.45.31-.81.56-1.16.56ZM93.46,64.57c-.37,0-.74.08-1.08.24-.72.35-1.23,1.03-1.43,1.92-.2.89-.07,1.89.37,2.8.26.55.52.83.79.91.36.09.75-.18,1.25-.52.31-.21.65-.45,1.06-.65.39-.19.81-.32,1.17-.43.62-.19,1.16-.36,1.33-.75.12-.27.05-.65-.19-1.17-.7-1.45-2.02-2.34-3.28-2.34h0Z"/>
        <path class="cls-3" d="M94.84,56.2c-.08,2.26-1.45,4.04-3.04,3.99-1.59-.06-2.82-1.94-2.73-4.2.08-2.26,1.43-1.2,3.03-1.14,1.59.06,2.83-.91,2.74,1.35Z"/>
        <path d="M91.88,60.25s-.05,0-.08,0c-.79-.03-1.52-.49-2.04-1.3-.52-.8-.79-1.86-.75-2.96.03-.69.17-1.11.44-1.32.36-.28.89-.17,1.5-.04.35.07.75.16,1.15.17.41.02.8-.04,1.15-.09.58-.08,1.03-.14,1.33.13.25.22.35.66.32,1.38-.04,1.11-.38,2.14-.97,2.9-.57.74-1.29,1.15-2.06,1.15ZM90.04,54.61c-.21,0-.38.04-.52.15-.24.19-.37.59-.39,1.23-.04,1.08.22,2.11.73,2.89.51.78,1.2,1.22,1.95,1.25.03,0,.05,0,.08,0,1.53,0,2.82-1.74,2.9-3.93.03-.68-.07-1.08-.28-1.28-.26-.23-.69-.17-1.23-.1-.35.05-.75.1-1.17.09-.41-.02-.82-.1-1.17-.17-.32-.07-.62-.13-.88-.13h0Z"/>
        <path class="cls-3" d="M88.16,55.91c1.72,1.38,2.34,3.46,1.39,4.64-.95,1.18-3.11,1.02-4.83-.37-1.72-1.38-.12-1.79.83-2.97.95-1.18.9-2.68,2.61-1.3h0Z"/>
        <path d="M87.69,61.4c-.09,0-.18,0-.28-.01-.92-.07-1.9-.48-2.73-1.16-.53-.42-.78-.78-.78-1.12,0-.43.37-.77.82-1.16.26-.22.54-.48.78-.78.24-.3.42-.63.58-.93.25-.46.47-.87.85-.94.32-.06.72.11,1.27.55.84.68,1.45,1.54,1.71,2.43.27.9.16,1.71-.32,2.3-.43.53-1.09.81-1.9.81h0ZM87.06,55.42s-.07,0-.11.01c-.32.06-.52.42-.76.88-.16.3-.34.63-.59.94-.25.31-.54.56-.8.79-.42.37-.79.69-.78,1.07,0,.3.25.63.74,1.03.82.66,1.77,1.06,2.67,1.13.89.07,1.63-.2,2.07-.75.93-1.15.31-3.2-1.38-4.55-.45-.37-.79-.54-1.06-.54h0Z"/>
        <path class="cls-3" d="M98.25,61.09c-1.82.97-3.86.7-4.56-.6-.7-1.31.21-3.16,2.03-4.13,1.82-.97,1.61.6,2.31,1.91.7,1.31,2.04,1.85.22,2.83h0Z"/>
        <path d="M96.04,61.73c-1.06,0-1.97-.42-2.4-1.22-.71-1.33.21-3.22,2.05-4.21.55-.29.95-.38,1.24-.26.39.16.56.63.74,1.19.11.31.23.67.41,1,.18.34.41.63.61.88.34.43.6.77.52,1.14-.06.3-.36.58-.93.89-.74.4-1.52.59-2.24.59h0ZM96.65,56.11c-.23,0-.53.1-.9.29-1.79.96-2.68,2.77-2,4.05.68,1.28,2.69,1.54,4.48.58.54-.29.81-.55.87-.81.07-.31-.18-.63-.5-1.04-.2-.26-.43-.55-.62-.9-.18-.34-.3-.7-.41-1.02-.18-.53-.33-.98-.67-1.11-.07-.03-.15-.04-.24-.04h0Z"/>
        <path class="cls-3" d="M84.1,60.46c2.03-.55,4.03.28,4.45,1.85.42,1.57-.88,3.29-2.91,3.84-2.03.55-1.49-1.06-1.92-2.63-.42-1.57-1.65-2.5.38-3.05Z"/>
        <path d="M84.94,66.32c-.23,0-.42-.05-.57-.15-.38-.26-.44-.82-.52-1.47-.04-.36-.09-.77-.19-1.17-.11-.41-.28-.77-.42-1.1-.25-.55-.45-.99-.27-1.36.14-.29.49-.5,1.12-.67,2.06-.56,4.09.29,4.53,1.89.21.78.02,1.61-.55,2.35-.56.74-1.41,1.29-2.41,1.56-.28.08-.51.11-.72.11h0ZM84.12,60.52c-.59.16-.92.35-1.04.61-.15.32.04.73.27,1.26.15.33.32.7.43,1.11.11.41.16.82.2,1.19.07.62.13,1.15.46,1.38.24.16.63.17,1.18.02.97-.26,1.8-.8,2.35-1.51.54-.71.73-1.51.53-2.25-.42-1.53-2.38-2.34-4.38-1.8Z"/>
        <path class="cls-3" d="M97.42,66.8c-2.09-.59-3.43-2.31-3-3.83.43-1.52,2.48-2.27,4.57-1.68,2.09.59.78,1.65.35,3.17-.43,1.52.18,2.93-1.91,2.34h0Z"/>
        <path d="M98.23,67c-.22,0-.5-.05-.83-.14-2.12-.6-3.48-2.35-3.04-3.9.44-1.55,2.52-2.32,4.64-1.72.63.18.99.41,1.13.71.19.41-.04.9-.31,1.46-.15.32-.32.68-.43,1.07-.11.39-.15.78-.19,1.13-.06.58-.11,1.04-.44,1.26-.13.09-.31.13-.52.13h0ZM97.56,61.15c-1.5,0-2.76.7-3.08,1.84-.42,1.49.9,3.17,2.96,3.75.62.18,1.02.18,1.25.02.28-.19.33-.62.39-1.17.04-.35.08-.74.19-1.15.11-.39.28-.76.44-1.09.25-.54.47-1.01.31-1.36-.12-.27-.47-.48-1.05-.65-.48-.14-.95-.2-1.41-.2h0Z"/>
        <path class="cls-3" d="M85.68,66.79c.93-1.7,2.78-2.49,4.13-1.75,1.36.74,1.7,2.72.78,4.42-.93,1.7-1.69.3-3.05-.44-1.36-.74-2.79-.53-1.86-2.23Z"/>
        <path d="M89.65,70.33c-.38,0-.77-.29-1.21-.62-.28-.21-.59-.44-.93-.63-.35-.19-.71-.32-1.03-.43-.55-.19-.98-.35-1.12-.71-.11-.28-.02-.65.26-1.17.94-1.73,2.83-2.53,4.22-1.78,1.38.75,1.74,2.77.8,4.5-.27.5-.54.76-.84.83-.05.01-.1.02-.15.02ZM85.73,66.82c-.26.49-.34.83-.25,1.07.12.31.53.46,1.04.64.32.11.69.24,1.04.44.35.19.67.43.95.64.47.36.88.67,1.26.59.26-.06.51-.31.76-.76.91-1.67.57-3.62-.75-4.34-1.32-.72-3.14.06-4.05,1.73h0Z"/>
        <path class="cls-4" d="M91.51,67.01c2.49,0,4.51-2.02,4.51-4.51s-2.02-4.51-4.51-4.51-4.51,2.02-4.51,4.51,2.02,4.51,4.51,4.51Z"/>
        <path d="M91.52,67.08c-.54,0-1.09-.1-1.61-.3-1.14-.43-2.05-1.28-2.55-2.39-.5-1.11-.54-2.35-.11-3.49.43-1.14,1.28-2.05,2.39-2.55,1.11-.5,2.35-.54,3.49-.11,1.14.43,2.05,1.28,2.55,2.39.5,1.11.54,2.35.11,3.49-.43,1.14-1.28,2.05-2.39,2.55-.6.27-1.24.41-1.88.41ZM91.51,58.06c-.62,0-1.24.13-1.83.4-1.08.49-1.91,1.37-2.33,2.48-.87,2.29.3,4.86,2.59,5.73,1.11.42,2.32.38,3.4-.11,1.08-.49,1.91-1.37,2.33-2.48.87-2.29-.3-4.86-2.59-5.73-.51-.19-1.04-.29-1.57-.29h0Z"/>
        <path class="cls-3" d="M90.02,62.91c.51,0,.93-.63.93-1.4s-.41-1.4-.93-1.4-.93.63-.93,1.4.41,1.4.93,1.4Z"/>
        <path d="M90.02,62.98c-.55,0-1-.66-1-1.47s.45-1.47,1-1.47,1,.66,1,1.47-.45,1.47-1,1.47ZM90.02,60.18c-.47,0-.85.59-.85,1.33s.38,1.33.85,1.33.85-.59.85-1.33-.38-1.33-.85-1.33Z"/>
        <path d="M90.34,62.26c.28,0,.51-.34.51-.77s-.23-.77-.51-.77-.51.34-.51.77.23.77.51.77Z"/>
        <path d="M90.34,62.32c-.31,0-.57-.37-.57-.83s.26-.83.57-.83.57.37.57.83-.26.83-.57.83ZM90.34,60.79c-.25,0-.45.32-.45.71s.2.71.45.71.45-.32.45-.71-.2-.71-.45-.71Z"/>
        <path class="cls-3" d="M90.12,61.27c.08,0,.14-.1.14-.22s-.06-.22-.14-.22-.14.1-.14.22.06.22.14.22Z"/>
        <path class="cls-3" d="M90.33,61.4s.07-.05.07-.11-.03-.11-.07-.11-.07.05-.07.11.03.11.07.11Z"/>
        <path class="cls-3" d="M93.14,62.92c.51,0,.93-.63.93-1.4s-.42-1.4-.93-1.4-.93.63-.93,1.4.42,1.4.93,1.4Z"/>
        <path d="M93.14,62.99c-.55,0-1-.66-1-1.48s.45-1.48,1-1.48,1,.66,1,1.48-.45,1.48-1,1.48ZM93.14,60.18c-.47,0-.86.6-.86,1.33s.38,1.33.86,1.33.86-.6.86-1.33-.38-1.33-.86-1.33Z"/>
        <path d="M93.46,62.27c.28,0,.51-.34.51-.77s-.23-.77-.51-.77-.51.34-.51.77.23.77.51.77Z"/>
        <path d="M93.46,62.33c-.31,0-.57-.37-.57-.83s.25-.83.57-.83.57.37.57.83-.26.83-.57.83ZM93.46,60.79c-.25,0-.45.32-.45.71s.2.71.45.71.45-.32.45-.71-.2-.71-.45-.71Z"/>
        <path class="cls-3" d="M93.24,61.29c.08,0,.14-.1.14-.22s-.06-.22-.14-.22-.14.1-.14.22.06.22.14.22Z"/>
        <path class="cls-3" d="M93.45,61.39s.07-.05.07-.11-.03-.11-.07-.11-.07.05-.07.11.03.11.07.11Z"/>
        <path d="M94.89,62.53c0,1.81-1.48,3.29-3.29,3.29s-3.28-1.47-3.29-3.28c-.05,0-.1,0-.15,0,0,1.89,1.54,3.43,3.44,3.43s3.44-1.54,3.44-3.44h0s-.1,0-.15,0h0Z"/>
        <path d="M89.8,59.55c-.32.07-.57.21-.64.37,0,.01,0,.02.02.02.08-.05.17-.09.26-.13,0,0-.21.08,0,0,.11-.04.18-.1.38-.14.27-.06.54-.03.66-.03.01,0,.02-.02,0-.03-.14-.09-.4-.12-.69-.06h0Z"/>
        <path d="M93.26,59.5c.32.07.57.21.64.37,0,.01,0,.02-.02.02-.08-.05-.17-.09-.26-.13,0,0,.21.08,0,0-.11-.04-.18-.1-.38-.14-.27-.06-.54-.03-.66-.03-.01,0-.02-.02,0-.03.14-.09.4-.12.69-.06h0Z"/>
      </g>
    </g>
  </g>
</svg>