<?xml version="1.0" encoding="UTF-8"?>
<svg id="Calque_2" xmlns="http://www.w3.org/2000/svg" viewBox="0 0 1000 908.22">
  <defs>
    <style>
      .cls-1 {
        fill-rule: evenodd;
      }

      .cls-1, .cls-2 {
        fill: #d4cdff;
      }

      .cls-3 {
        fill: #161b8c;
      }
    </style>
  </defs>
  <g id="Calque_2-2" data-name="Calque_2">
    <g id="Calque_1-2">
      <g>
        <rect class="cls-3" y="159.82" width="1000" height="592"/>
        <g>
          <path class="cls-2" d="M108.22,351.14c0-60.73,30.61-80.58,74.12-80.58,35.87,0,62.17,5.5,95.64.72v58.82c-22.95-8.13-44.71-11.24-58.1-11.24-11.72,0-19.13,4.06-19.13,12.19,0,6.93,7.41,11.48,19.13,11.48,13.39,0,35.15-1.43,58.1-4.78v85.12c-33.48-4.78-62.17.72-95.64.72-43.52,0-74.12-27.02-74.12-72.45h0Z"/>
          <path class="cls-2" d="M371.47,418.81h-82.49c4.78-49.49,4.78-117.88,0-160.2h82.49c-4.78,42.32-4.78,110.71,0,160.2Z"/>
          <path class="cls-2" d="M379.12,294.47h82.49c-4.78,41.37-4.78,82.97,0,124.33h-82.49c4.78-41.37,4.78-82.97,0-124.33h0ZM394.66,267.21c0-13.39,11.72-21.76,27.02-21.76s26.78,8.37,26.78,21.76c0,11.24-10.28,20.08-26.78,20.08s-27.02-8.85-27.02-20.08Z"/>
          <path class="cls-2" d="M558.45,391.07c-1.67-3.83-3.59-5.98-6.46-5.98s-4.54,2.15-4.54,5.5c0,12.91,1.2,42.8,2.63,64.08h-78.43c4.06-71.01,3.11-120.27-2.39-160.2h81.77c-.48,5.98-1.2,16.98-1.2,24.39,0,4.3,2.15,7.17,5.26,7.17,2.87,0,5.26-2.39,7.41-6.22,7.89-14.59,19.61-30.13,43.76-30.13,35.39,0,58.1,24.87,58.1,64.32,0,41.84-22.48,69.58-57.86,69.58-26.54,0-41.6-17.93-48.06-32.52h.01ZM565.86,366.44c10.76,0,19.37-9.32,19.37-19.37,0-7.17-4.78-11.96-11.96-11.96-10.52,0-18.89,9.56-18.89,19.85,0,6.93,4.54,11.48,11.48,11.48h0Z"/>
        </g>
        <g>
          <path class="cls-2" d="M413.82,547.11c0-60.73,30.61-80.58,74.12-80.58,35.87,0,62.17,5.5,95.64.72v58.82c-22.95-8.13-44.71-11.24-58.1-11.24-11.72,0-19.13,4.06-19.13,12.2,0,6.93,7.41,11.48,19.13,11.48,13.39,0,35.15-1.43,58.1-4.78v85.12c-33.47-4.78-62.17.72-95.64.72-43.52,0-74.12-27.02-74.12-72.45h0Z"/>
          <path class="cls-2" d="M693.81,590.39c0-4.3-2.15-7.17-5.26-7.17-2.87,0-5.98,2.39-7.65,6.22-6.46,14.58-17.22,30.13-41.37,30.13-29.65,0-43.04-17.69-43.04-52.36,0-29.89,3.11-53.08-1.91-76.75h82.49c-3.83,27.98-5.5,49.73-5.5,62.41,0,10.28,5.74,14.11,11.24,14.11,5.02,0,11.72-3.83,11.72-16.5,0-14.35-1.2-36.58-5.26-60.02h83.45c-3.11,41.37-4.06,82.97-.96,124.33h-81.3c1.67-8.13,3.35-19.37,3.35-24.39h0Z"/>
          <path class="cls-2" d="M791.12,564.56v-17.93c0-9.56-2.87-15.78-9.8-15.78v-40.41c30.37,0,62.41-16.02,77.95-35.87h3.59v18.89c0,11.24,3.35,16.98,12.19,16.98h18.41v40.41h-14.83c-8.85,0-12.19,5.74-12.19,16.98v2.87c0,23.43,7.17,38.97,22.71,38.97,2.87,0,5.26-.24,7.89-.96v1.43c-6.22,13.87-23.91,29.41-52.36,29.41-33,0-53.56-18.17-53.56-54.99h0Z"/>
        </g>
        <path class="cls-1" d="M363.99,598c19.25,9.31,35.25,9.36,48.22.8l-93.42-55.45-24.08,13.17,69.27,41.49h.01ZM365.49,482.16c19.48-8.81,35.48-8.45,48.23.45l-114.73,64.16c-3.98,3-8.19,4.84-12.72,5.02-4.23.17-5.75-1.06-9.42-1.79-3.08-.6-6.22-.33-9.49,1.68l-3.03,2.7c-2.71,2.42-5.96,4.48-5.49,8.64.31,2.77,2.63,5.13,6.37,7.2,2.82,2.63,5.01,5.69,6.51,9.18,1.45,3.38,2.26,7.16,2.39,11.39-.85,13.22-7.17,24.59-22.18,32.98-17.1,10.19-31.42,8.81-44.14.92-7.74-6.06-11.08-13.29-10.99-21.47.14-12.48,6.27-22.53,15.69-30.26,5.97-4.9,13.12-8.94,21.08-13.19l20.43-15.56,4.76-1.8,106.74-60.25h-.01ZM294.15,539.55c-.04,3.47-2.88,6.24-6.35,6.19-3.47-.04-6.24-2.88-6.19-6.35s2.88-6.24,6.35-6.19c3.47.04,6.24,2.88,6.19,6.35h0ZM254.69,578.04c6.78,4.56,7.4,12.1,4.78,19.25-2.11,5.74-6.48,10.66-13.02,14.78-5.51,3.47-14.36,6.11-21.99,5.31-14.79-1.56-17.42-14.77-10.81-26.18,2.94-5.08,7.25-9.09,13.07-11.96,3.93-1.93,8.58-3.55,13.27-4.12,5.18-.63,10.39.01,14.7,2.92h0ZM271.89,527.79c-1.38-.32-2.77-.91-4.18-1.82l-2.96-2.77c-2.65-2.49-5.85-4.63-5.27-8.78.39-2.76,2.76-5.06,6.56-7.03,2.89-2.56,5.15-5.56,6.74-9.01,1.53-3.35,2.44-7.1,2.69-11.32-.51-13.24-6.53-24.76-21.32-33.54-16.83-10.63-31.18-9.62-44.11-2.06-7.89,5.86-11.42,13-11.54,21.18-.18,12.48,5.68,22.68,14.9,30.65,5.84,5.05,12.88,9.28,20.73,13.73l23.56,18.94,1.06-.6.32-.19,12.82-7.37h0ZM255.71,499.31c6.89-4.38,7.71-11.91,5.28-19.12-1.96-5.79-6.2-10.82-12.63-15.11-5.42-3.61-14.2-6.48-21.87-5.86-14.83,1.18-17.8,14.32-11.48,25.9,2.81,5.15,7.01,9.27,12.76,12.29,3.88,2.03,8.49,3.77,13.16,4.46,5.18.75,10.41.22,14.79-2.56h-.01Z"/>
        <path class="cls-1" d="M686.93,283.51h143.62c1.31,0,2.38,1.07,2.38,2.38v157.98c0,1.31-1.07,2.38-2.4,2.38h-143.62c-1.31,0-2.38-1.07-2.38-2.38v-157.97c0-1.31,1.07-2.38,2.4-2.38h0ZM722.99,293.98h71.81v63.73h-71.81v-63.73h0ZM722.99,370.42h71.81v63.74h-71.81v-63.74h0ZM695.03,421.59h19.47v12.9h-19.47v-12.9h0ZM803.64,421.59h19.47v12.9h-19.47v-12.9h0ZM803.64,293.88h19.47v12.9h-19.47v-12.9h0ZM803.64,319.42h19.47v12.9h-19.47v-12.9h0ZM803.64,344.96h19.47v12.9h-19.47v-12.9h0ZM803.64,370.5h19.47v12.9h-19.47v-12.9h0ZM803.64,396.05h19.47v12.9h-19.47v-12.9h0ZM695.03,293.88h19.47v12.9h-19.47v-12.9h0ZM695.03,319.42h19.47v12.9h-19.47v-12.9h0ZM695.03,344.96h19.47v12.9h-19.47v-12.9h0ZM695.03,370.5h19.47v12.9h-19.47v-12.9h0ZM695.03,396.05h19.47v12.9h-19.47v-12.9h0Z"/>
      </g>
      <rect class="cls-3" width="1000" height="159.82"/>
      <rect class="cls-3" y="751.82" width="1000" height="156.4"/>
    </g>
  </g>
</svg>