<svg width="146" height="146" viewBox="0 0 146 146" fill="none" xmlns="http://www.w3.org/2000/svg">
<path d="M146 0H0V146H146V0Z" fill="#005061"/>
<path d="M71.2218 115.261C65.6607 103.77 68.5778 90.8602 77.7393 86.4262C86.9008 81.9921 98.8348 87.7139 104.397 99.2055C109.959 110.697 99.5006 109.411 90.3405 113.844C81.179 118.278 76.7844 126.753 71.2233 115.261H71.2218Z" fill="#FFFEEF"/>
<path d="M77.2312 121.399C76.8662 121.399 76.5041 121.354 76.142 121.259C74.2499 120.762 72.5826 118.907 70.8948 115.419C68.169 109.788 67.3558 103.641 68.6041 98.1149C69.8597 92.5581 73.0483 88.2891 77.5801 86.0961C86.9081 81.5818 99.0845 87.3897 104.726 99.0449C106.342 102.382 106.717 104.806 105.91 106.672C104.768 109.312 101.378 110.372 97.4537 111.598C95.2826 112.277 92.8211 113.046 90.4982 114.17C88.1301 115.317 86.0627 116.75 84.2377 118.016C81.5586 119.873 79.3613 121.399 77.2312 121.399ZM84.3677 85.2931C82.1383 85.2931 79.9453 85.7633 77.897 86.7531C73.5681 88.8482 70.521 92.9406 69.3151 98.2755C68.1018 103.641 68.8961 109.617 71.5503 115.1C73.1374 118.381 74.6558 120.113 76.326 120.552C78.4824 121.119 80.8389 119.485 83.8216 117.416C85.6685 116.136 87.7622 114.684 90.1799 113.513C92.551 112.366 95.0388 111.588 97.2347 110.902C100.988 109.728 104.23 108.714 105.238 106.381C105.945 104.748 105.563 102.451 104.066 99.3617C99.8495 90.6499 91.8969 85.2917 84.3662 85.2917L84.3677 85.2931Z" fill="black"/>
<path d="M92.6267 34.9918C92.1171 48.5829 83.9367 59.3096 74.3562 58.9504C64.7757 58.5912 57.4231 47.2806 57.9327 33.6895C58.4422 20.0983 66.5481 26.4946 76.1272 26.8538C85.7077 27.2129 93.1347 21.4007 92.6252 34.9918H92.6267Z" fill="#FFFEEF"/>
<path d="M74.8293 59.3242C74.6672 59.3242 74.5066 59.3213 74.3431 59.3155C69.5879 59.1374 65.2239 56.3546 62.0557 51.4811C58.9138 46.6471 57.3195 40.3238 57.5691 33.6764C57.7239 29.5475 58.5663 27.0217 60.222 25.7253C62.3652 24.0463 65.548 24.7062 69.2345 25.4698C71.3369 25.9048 73.7197 26.3983 76.1433 26.4903C78.6136 26.5837 80.9671 26.2552 83.0432 25.9676C86.5078 25.4858 89.2438 25.1062 91.0426 26.7312C92.5347 28.0802 93.1537 30.7097 92.9917 35.0065C92.742 41.6539 90.679 47.8413 87.1838 52.4257C83.7791 56.8904 79.4078 59.3257 74.8293 59.3257V59.3242ZM63.7975 25.407C62.5667 25.407 61.5053 25.6464 60.6702 26.299C59.2175 27.4364 58.4422 29.8585 58.2977 33.7027C58.0539 40.2012 59.6058 46.374 62.666 51.0825C65.7013 55.7516 69.858 58.4161 74.3694 58.5855C74.5197 58.5913 74.6716 58.5942 74.822 58.5942C83.9908 58.5942 91.7667 48.1319 92.2617 34.9787C92.4135 30.9141 91.8704 28.4657 90.552 27.2729C89.0073 25.8756 86.4202 26.2348 83.144 26.6903C81.0372 26.9823 78.6501 27.3152 76.1155 27.2188C73.6306 27.1254 71.2158 26.6261 69.0856 26.1837C67.1365 25.7807 65.3363 25.407 63.7975 25.407Z" fill="black"/>
<path d="M52.4549 33.2602C62.7757 41.5749 66.5104 54.0638 60.7959 61.1564C55.0829 68.2491 42.0846 67.2578 31.7638 58.9431C21.4431 50.6284 31.0324 48.1814 36.7468 41.0887C42.4598 33.9961 42.1342 24.9455 52.4549 33.2602Z" fill="#FFFEEF"/>
<path d="M49.6475 66.2562C49.1015 66.2562 48.5467 66.2343 47.9802 66.192C42.4234 65.7686 36.5834 63.2953 31.5347 59.2278C28.368 56.6772 26.873 54.5397 26.8292 52.503C26.7722 49.9101 29.079 47.8792 31.7508 45.5286C33.2824 44.181 35.0183 42.6539 36.4622 40.861C37.9339 39.0345 39.0129 37.0504 39.9648 35.3013C41.4832 32.5112 42.7928 30.1008 45.0573 29.6482C46.9669 29.2657 49.3905 30.3242 52.6828 32.977C57.7315 37.0445 61.3903 42.2246 62.9875 47.5624C64.5979 52.9498 63.9205 57.8583 61.0808 61.3857C58.5258 64.5568 54.5078 66.2562 49.6475 66.2562ZM45.8515 30.3008C45.6252 30.3008 45.4091 30.3212 45.2003 30.3636C43.2702 30.749 42.0949 32.9113 40.6057 35.6488C39.6392 37.4256 38.5442 39.4389 37.0302 41.318C35.5468 43.159 33.7861 44.7081 32.2326 46.0761C29.6981 48.307 27.5095 50.2327 27.5592 52.487C27.5986 54.2682 29.0484 56.2873 31.9932 58.6598C36.928 62.6354 42.6249 65.0517 48.0357 65.4649C53.3953 65.8737 57.8264 64.2633 60.5114 60.9287C66.09 54.0054 62.3729 41.7209 52.2244 33.5464C49.4986 31.3505 47.4473 30.3023 45.85 30.3023L45.8515 30.3008Z" fill="black"/>
<path d="M113.15 64.3568C102.219 70.207 89.9473 68.5805 85.7425 60.7243C81.5363 52.8666 86.9894 41.7545 97.9204 35.9028C108.851 30.0526 107.618 39.5046 111.823 47.3624C116.029 55.2201 124.081 58.5051 113.15 64.3568Z" fill="#FFFEEF"/>
<path d="M99.8568 68.2214C93.481 68.2214 87.9841 65.6868 85.4189 60.8951C81.125 52.8724 86.6555 41.5165 97.7471 35.5802C101.053 33.8106 103.431 33.3172 105.231 34.0282C107.596 34.9611 108.576 37.8417 109.71 41.1763C110.353 43.0641 111.08 45.2045 112.144 47.1901C113.228 49.2151 114.587 50.9525 115.787 52.487C117.803 55.0653 119.396 57.102 118.929 59.3198C118.546 61.1331 116.765 62.8354 113.322 64.678C108.856 67.0694 104.157 68.2214 99.8583 68.2214H99.8568ZM103.508 34.4516C102.096 34.4516 100.307 35.0385 98.0917 36.224C87.3548 41.9706 81.9587 52.8841 86.0627 60.5505C90.1668 68.217 102.241 69.7792 112.976 64.0341C116.215 62.3011 117.878 60.7549 118.212 59.1679C118.609 57.2831 117.11 55.3646 115.21 52.9352C113.993 51.3788 112.613 49.6137 111.499 47.5332C110.407 45.4936 109.669 43.324 109.018 41.4099C107.942 38.2461 107.014 35.5145 104.962 34.7056C104.53 34.5348 104.047 34.4501 103.508 34.4501V34.4516Z" fill="black"/>
<path d="M100.232 97.8227C89.9097 90.9349 85.4301 79.2691 90.2275 71.768C95.0255 64.2649 107.284 63.7678 117.608 70.655C127.931 77.5428 119.138 80.9858 114.339 88.4876C109.541 95.9907 110.557 104.71 100.232 97.8227Z" fill="#FFFEEF"/>
<path d="M90.4987 87.8867C87.4381 82.2311 86.9983 76.1385 89.9241 71.5629C94.8231 63.9029 107.33 63.3574 117.805 70.3464C120.927 72.429 122.496 74.3017 122.744 76.2399C123.07 78.7857 121.041 81.0375 118.692 83.6445C117.363 85.1205 115.855 86.7929 114.643 88.6902C113.406 90.6232 112.552 92.6629 111.796 94.4641C110.527 97.4903 109.525 99.8809 107.377 100.531C105.62 101.062 103.288 100.299 100.037 98.1301C95.8181 95.3165 92.5627 91.7007 90.4994 87.888L90.4987 87.8867ZM121.549 74.9149C120.872 73.6626 119.503 72.3566 117.411 70.9611C107.272 64.1957 95.2132 64.648 90.5321 71.9686C85.8509 79.2892 90.2917 90.7493 100.429 97.5141C103.487 99.5547 105.627 100.288 107.164 99.8223C108.99 99.2697 109.935 97.0188 111.131 94.1677C111.897 92.3405 112.766 90.2693 114.036 88.2825C115.281 86.3347 116.809 84.6392 118.157 83.1428C120.386 80.6696 122.31 78.5346 122.027 76.3268C121.968 75.8614 121.809 75.3921 121.551 74.9142L121.549 74.9149Z" fill="black"/>
<path d="M28.1048 60.6104C40.3323 57.3049 52.3116 62.2762 54.8622 71.7122C57.4128 81.1482 49.5683 91.4777 37.3408 94.7817C25.1133 98.0871 28.3676 88.4 25.817 78.964C23.2664 69.528 15.8773 63.9158 28.1048 60.6118V60.6104Z" fill="#FFFEEF"/>
<path d="M33.1333 95.8125C31.736 95.8125 30.6206 95.5117 29.7329 94.9058C27.4422 93.3466 27.0655 89.9813 26.629 86.0831C26.3851 83.9106 26.1107 81.449 25.4639 79.059C24.8054 76.6223 23.8097 74.4191 22.9308 72.4744C21.4299 69.1558 20.2458 66.5351 21.3 64.2999C22.1219 62.5566 24.255 61.2733 28.0087 60.2586C40.4114 56.9064 52.6155 62.0018 55.2143 71.6174C56.4787 76.2923 55.3121 81.3176 51.9337 85.7677C48.5757 90.1886 43.4263 93.5159 37.4359 95.1351C35.7656 95.5862 34.3436 95.8125 33.1333 95.8125ZM28.1999 60.9638C24.6682 61.9186 22.6855 63.0778 21.9613 64.6123C21.0503 66.5424 22.1745 69.0273 23.5965 72.1751C24.4871 74.1446 25.496 76.3755 26.1705 78.8692C26.8304 81.3132 27.1093 83.804 27.356 86.0028C27.7721 89.7214 28.1313 92.9334 30.1446 94.3029C31.593 95.2884 33.9158 95.3307 37.2461 94.4299C43.0817 92.8531 48.0924 89.6192 51.3526 85.3253C54.5923 81.0607 55.7136 76.2587 54.5106 71.8072C52.0169 62.5814 40.2128 57.7167 28.1999 60.9623V60.9638Z" fill="black"/>
<path d="M37.5658 98.6667C43.1415 88.419 54.2667 83.7061 62.415 88.1401C70.5632 92.5741 72.6481 104.475 67.0724 114.722C61.4966 124.97 56.9049 116.527 48.7567 112.093C40.6084 107.659 31.99 108.914 37.5658 98.6667Z" fill="#FFFEEF"/>
<path d="M61.4308 119.951C59.1488 119.951 56.8216 118.196 54.1761 116.198C52.5219 114.95 50.6472 113.535 48.5828 112.413C46.4789 111.268 44.3196 110.499 42.4143 109.82C39.1308 108.65 36.5378 107.726 35.6968 105.527C35.0559 103.848 35.5479 101.613 37.2459 98.4931C42.9092 88.0847 54.2783 83.2974 62.59 87.819C70.9018 92.3421 73.0568 104.488 67.3934 114.896C65.767 117.885 64.161 119.46 62.336 119.854C62.0352 119.92 61.733 119.951 61.4308 119.951ZM37.8868 98.8405C36.2983 101.761 35.8195 103.802 36.3786 105.266C37.0984 107.151 39.5527 108.024 42.6596 109.132C44.5897 109.82 46.7782 110.599 48.9317 111.772C51.0429 112.921 52.9409 114.353 54.6155 115.616C57.4683 117.768 59.9328 119.627 62.1812 119.14C63.7609 118.799 65.256 117.296 66.751 114.546C72.2217 104.492 70.1981 92.7889 62.2396 88.4585C54.2812 84.1281 43.356 88.787 37.8854 98.8391L37.8868 98.8405Z" fill="black"/>
<path d="M72.6511 99.9778C87.6143 99.9778 99.7443 87.8478 99.7443 72.8846C99.7443 57.9214 87.6143 45.7914 72.6511 45.7914C57.6879 45.7914 45.5579 57.9214 45.5579 72.8846C45.5579 87.8478 57.6879 99.9778 72.6511 99.9778Z" fill="#F0B035"/>
<path d="M72.664 100.358C69.3907 100.358 66.1115 99.7648 62.9579 98.5749C56.0959 95.9848 50.653 90.8792 47.6323 84.1953C44.6115 77.5129 44.3736 70.0523 46.9636 63.1903C49.5537 56.3283 54.6593 50.8855 61.3432 47.8647C68.027 44.844 75.4862 44.606 82.3482 47.196C89.2102 49.7861 94.6531 54.8917 97.6738 61.5756C100.695 68.2595 100.933 75.7186 98.3425 82.5806C95.7524 89.4426 90.6468 94.8855 83.9629 97.9062C80.3509 99.5385 76.5126 100.359 72.664 100.359V100.358ZM72.6392 46.1419C68.8928 46.1419 65.1567 46.9391 61.641 48.529C55.1352 51.4695 50.1654 56.7678 47.644 63.4473C42.4405 77.2355 49.4252 92.6867 63.2134 97.8901C69.8929 100.41 77.155 100.179 83.6593 97.239C90.165 94.2986 95.1349 89.0002 97.6563 82.3207C102.86 68.5325 95.8751 53.0813 82.0868 47.8779C79.0179 46.7201 75.8234 46.1419 72.6392 46.1419Z" fill="black"/>
<path d="M63.6776 75.3228C66.7497 75.3228 69.2402 71.5551 69.2402 66.9074C69.2402 62.2597 66.7497 58.4919 63.6776 58.4919C60.6055 58.4919 58.115 62.2597 58.115 66.9074C58.115 71.5551 60.6055 75.3228 63.6776 75.3228Z" fill="#FFFEEF"/>
<path d="M63.6776 75.7608C60.3692 75.7608 57.677 71.7896 57.677 66.9074C57.677 62.0252 60.3692 58.054 63.6776 58.054C66.986 58.054 69.6782 62.0252 69.6782 66.9074C69.6782 71.7896 66.986 75.7608 63.6776 75.7608ZM63.6776 58.93C60.8525 58.93 58.553 62.5084 58.553 66.9074C58.553 71.3064 60.8525 74.8848 63.6776 74.8848C66.5027 74.8848 68.8022 71.3064 68.8022 66.9074C68.8022 62.5084 66.5027 58.93 63.6776 58.93Z" fill="black"/>
<path d="M65.5873 71.4245C67.2709 71.4245 68.6358 69.3596 68.6358 66.8123C68.6358 64.2651 67.2709 62.2002 65.5873 62.2002C63.9037 62.2002 62.5388 64.2651 62.5388 66.8123C62.5388 69.3596 63.9037 71.4245 65.5873 71.4245Z" fill="black"/>
<path d="M65.5876 71.7896C63.7056 71.7896 62.1741 69.5573 62.1741 66.8125C62.1741 64.0677 63.7056 61.8353 65.5876 61.8353C67.4695 61.8353 69.001 64.0677 69.001 66.8125C69.001 69.5573 67.4695 71.7896 65.5876 71.7896ZM65.5876 62.5653C64.1086 62.5653 62.9041 64.4706 62.9041 66.8125C62.9041 69.1543 64.1086 71.0596 65.5876 71.0596C67.0665 71.0596 68.271 69.1543 68.271 66.8125C68.271 64.4706 67.0665 62.5653 65.5876 62.5653Z" fill="black"/>
<path d="M64.2574 65.44C64.7299 65.44 65.113 64.8602 65.113 64.145C65.113 63.4298 64.7299 62.85 64.2574 62.85C63.7849 62.85 63.4019 63.4298 63.4019 64.145C63.4019 64.8602 63.7849 65.44 64.2574 65.44Z" fill="#FFFEEF"/>
<path d="M65.5455 66.2125C65.7817 66.2125 65.9732 65.9229 65.9732 65.5657C65.9732 65.2085 65.7817 64.9189 65.5455 64.9189C65.3092 64.9189 65.1177 65.2085 65.1177 65.5657C65.1177 65.9229 65.3092 66.2125 65.5455 66.2125Z" fill="#FFFEEF"/>
<path d="M82.4256 75.3551C85.509 75.3551 88.0086 71.573 88.0086 66.9075C88.0086 62.2421 85.509 58.46 82.4256 58.46C79.3421 58.46 76.8425 62.2421 76.8425 66.9075C76.8425 71.573 79.3421 75.3551 82.4256 75.3551Z" fill="#FFFEEF"/>
<path d="M82.4258 75.793C79.1058 75.793 76.4048 71.8072 76.4048 66.9074C76.4048 62.0076 79.1058 58.0219 82.4258 58.0219C85.7459 58.0219 88.4483 62.0076 88.4483 66.9074C88.4483 71.8072 85.7473 75.793 82.4258 75.793ZM82.4258 58.8979C79.589 58.8979 77.2808 62.4909 77.2808 66.9074C77.2808 71.3239 79.589 74.917 82.4258 74.917C85.2626 74.917 87.5723 71.3239 87.5723 66.9074C87.5723 62.4909 85.2641 58.8979 82.4258 58.8979Z" fill="black"/>
<path d="M84.3485 71.4422C86.0386 71.4422 87.4086 69.3694 87.4086 66.8125C87.4086 64.2556 86.0386 62.1829 84.3485 62.1829C82.6584 62.1829 81.2883 64.2556 81.2883 66.8125C81.2883 69.3694 82.6584 71.4422 84.3485 71.4422Z" fill="black"/>
<path d="M84.3485 71.8057C82.4593 71.8057 80.9233 69.5646 80.9233 66.8111C80.9233 64.0575 82.4593 61.8164 84.3485 61.8164C86.2377 61.8164 87.7737 64.056 87.7737 66.8111C87.7737 69.5661 86.2377 71.8057 84.3485 71.8057ZM84.3485 62.5479C82.8622 62.5479 81.6533 64.4605 81.6533 66.8125C81.6533 69.1646 82.8622 71.0772 84.3485 71.0772C85.8348 71.0772 87.0437 69.1646 87.0437 66.8125C87.0437 64.4605 85.8348 62.5479 84.3485 62.5479Z" fill="black"/>
<path d="M83.0125 65.5788C83.4867 65.5788 83.871 64.997 83.871 64.2794C83.871 63.5617 83.4867 62.98 83.0125 62.98C82.5384 62.98 82.1541 63.5617 82.1541 64.2794C82.1541 64.997 82.5384 65.5788 83.0125 65.5788Z" fill="#FFFEEF"/>
<path d="M84.3047 66.2096C84.5418 66.2096 84.734 65.9187 84.734 65.5599C84.734 65.201 84.5418 64.9102 84.3047 64.9102C84.0677 64.9102 83.8755 65.201 83.8755 65.5599C83.8755 65.9187 84.0677 66.2096 84.3047 66.2096Z" fill="#FFFEEF"/>
<path d="M92.9291 73.0072C92.9247 83.912 84.0523 92.7829 73.1461 92.7829C62.2399 92.7829 53.401 83.9456 53.3645 73.0686C53.0725 73.0569 52.7805 73.0423 52.4885 73.0262C52.5031 84.4055 61.7654 93.6589 73.1475 93.6589C84.5297 93.6589 93.8065 84.3909 93.8065 72.9999C93.8065 72.9941 93.8065 72.9883 93.8065 72.9824C93.5145 72.9926 93.2225 72.9999 92.9305 73.0072H92.9291Z" fill="black"/>
<path d="M62.3275 55.0872C60.3842 55.4844 58.9242 56.3691 58.4702 57.3327C58.4351 57.4072 58.5154 57.4831 58.587 57.4408C59.0848 57.1473 59.606 56.8903 60.1506 56.6684C60.1535 56.6684 58.9125 57.159 60.1608 56.6626C60.7916 56.4115 61.2646 56.0625 62.4749 55.8026C64.078 55.4581 65.7468 55.5924 66.4593 55.6055C66.541 55.607 66.5761 55.499 66.506 55.4537C65.6387 54.8931 64.0882 54.7266 62.3289 55.0872H62.3275Z" fill="black"/>
<path d="M83.1165 54.7952C85.0597 55.1924 86.5197 56.0771 86.9738 57.0407C87.0088 57.1152 86.9285 57.1911 86.857 57.1488C86.3591 56.8553 85.8379 56.5983 85.2933 56.3764C85.2904 56.3764 86.5314 56.867 85.2831 56.3706C84.6524 56.1195 84.1794 55.7705 82.969 55.5106C81.366 55.1661 79.6972 55.3004 78.9847 55.3135C78.9029 55.315 78.8679 55.207 78.938 55.1617C79.8052 54.6011 81.3557 54.4346 83.115 54.7952H83.1165Z" fill="black"/>
</svg>
