<?xml version="1.0" encoding="UTF-8"?>
<svg id="Calque_1" xmlns="http://www.w3.org/2000/svg" version="1.1" xmlns:xlink="http://www.w3.org/1999/xlink" viewBox="0 0 585 587">
  <!-- Generator: Adobe Illustrator 29.1.0, SVG Export Plug-In . SVG Version: 2.1.0 Build 142)  -->
  <defs>
    <style>
      .st0 {
        fill: #b0313f;
      }

      .st1 {
        fill: #fff;
      }

      .st2 {
        fill: none;
      }

      .st3 {
        clip-path: url(#clippath);
      }
    </style>
    <clipPath id="clippath">
      <rect class="st2" x="122.1" y="86.6" width="352.9" height="276.9"/>
    </clipPath>
  </defs>
  <rect width="587" height="587"/>
  <g>
    <path class="st1" d="M179.8,384.5v77.9h-18.4v-57.9c-2.5.9-4.8,2.2-7,3.8-2.1,1.7-3.9,3.6-5.4,5.7-1.5,2.1-2.6,4.5-3.5,7.1-.8,2.6-1.2,5.3-1.2,8.1v33.2h-18.4v-33.2c0-2.8-.5-5.5-1.4-8.1-.8-2.6-2-4.9-3.5-7.1-1.5-2.1-3.3-4.1-5.4-5.7-2.1-1.7-4.4-2.9-6.9-3.8v57.9h-18.4v-59.5h-12v-18.4h21.1c7.3,0,14.1,1.6,20.2,4.8,6.2,3.2,11.3,7.5,15.5,12.9,4.1-5.4,9.2-9.7,15.3-12.9,6.2-3.2,12.9-4.8,20.3-4.8h9.1ZM191.2,384.5h69.6v77.9h-18.3v-27.3h-21.4c-.2,3.9-1.1,7.7-2.8,11.2-1.6,3.5-3.7,6.5-6.4,9-2.7,2.6-5.8,4.6-9.4,6.1-3.5,1.5-7.3,2.2-11.3,2.2v-18.4c1.5,0,2.8-.2,4.2-.7,1.3-.6,2.5-1.3,3.5-2.2,1-1,1.9-2,2.5-3.2.7-1.2,1.1-2.6,1.2-4.1h-11.4v-16.5h11.5v-15.7h-11.5v-18.4ZM242.6,402.9h-21.4v15.7h21.4v-15.7ZM342.3,384.5v77.9h-18.4v-4.7c0-5.1-.7-9.9-2-14.5-1.2-4.7-3.1-9.1-5.5-13.2-2.4-4.2-5.2-8-8.6-11.4-3.4-3.5-7.2-6.5-11.4-9v52.9h-18.4v-59.3c-.6,0-1.1-.1-1.8-.1-.6,0-1.1-.1-1.7-.1h-8.5v-18.4h8.5c4.6,0,9.2.6,13.8,1.9,4.6,1.2,9.1,3,13.3,5.2,4.3,2.1,8.3,4.7,12.1,7.7,3.8,2.9,7.2,6.1,10.2,9.6v-24.3h18.4ZM347.5,384.5h76.4v18.4h-45.9v32c0,1.2.2,2.4.7,3.5.5,1.1,1.1,2.1,2,2.9.8.8,1.8,1.5,2.9,2,1.2.5,2.4.7,3.6.7h18.3v-12.4h-15.7v-18.4h34.1v64.2h-18.4v-15.1h-18.3c-3.8,0-7.4-.7-10.8-2.2-3.3-1.5-6.2-3.4-8.7-5.9-2.5-2.5-4.5-5.4-5.9-8.7s-2.2-6.9-2.2-10.7v-32h-12.1v-18.4ZM434.3,384.5h69.6v77.9h-18.3v-27.3h-21.4c-.2,3.9-1.1,7.7-2.8,11.2-1.6,3.5-3.7,6.5-6.4,9-2.7,2.6-5.8,4.6-9.4,6.1-3.5,1.5-7.3,2.2-11.3,2.2v-18.4c1.5,0,2.8-.2,4.2-.7,1.3-.6,2.5-1.3,3.5-2.2,1-1,1.9-2,2.5-3.2.7-1.2,1.1-2.6,1.2-4.1h-11.4v-16.5h11.5v-15.7h-11.5v-18.4ZM485.6,402.9h-21.4v15.7h21.4v-15.7Z"/>
    <g class="st3">
      <g>
        <path class="st0" d="M248.5,267.9h21.3c2.8,0,5.1,2.3,5.1,5.1v90h-31.5v-90c0-2.8,2.3-5.1,5.1-5.1Z"/>
        <path class="st0" d="M287.8,228.4h21.4c2.8,0,5,2.3,5,5v129.5h-31.5v-129.5c0-2.8,2.3-5,5-5Z"/>
        <path class="st0" d="M327.7,295h21.3c2.8,0,5.1,2.3,5.1,5.1v62.9h-31.5v-62.9c0-2.8,2.3-5.1,5.1-5.1Z"/>
        <path class="st1" d="M422.3,164.4h-247.6v20.2h247.6v-20.2Z"/>
        <path class="st1" d="M307.4,137.8h-17.7v31h17.7v-31Z"/>
        <path class="st1" d="M362,362.9h-127v.5h127v-.5Z"/>
        <path class="st1" d="M205.1,101.7c-4.3,0-8.6-.4-12.8-1.3l-69.4-13.9c-4.3,20.5,9.7,40.5,31.2,44.6l44.5,8.5h108.8v-37.9h-102.3Z"/>
        <path class="st1" d="M392,101.7c4.3,0,8.6-.4,12.7-1.3l69.4-13.9c4.3,20.5-9.7,40.5-31.2,44.6l-44.5,8.5h-108.8v-37.9h102.3,0Z"/>
        <path class="st1" d="M235.4,137.3h-40.5v226.1h40.5v-226.1Z"/>
        <path class="st1" d="M402.1,137.3h-40.5v226.1h40.5v-226.1Z"/>
      </g>
    </g>
    <path class="st1" d="M230.3,477.5h11.7v49.7h-5.9c-6.1,0-11.3-.9-15.6-2.8-4.3-1.9-7.8-4.4-10.7-7.8-2.8-3.4-4.9-7.4-6.3-12-1.4-4.7-2.2-9.8-2.5-15.5h-7.7v-11.7h19.4v8c0,3.3.2,6.6.6,9.9.4,3.3,1.2,6.3,2.5,9,1.3,2.7,3.1,5,5.4,6.9,2.3,1.9,5.3,3.2,9.2,3.8v-37.5ZM248,477.5h24.1v11.7h-6.2v26.3h6.2v11.7h-24.1v-11.7h6.2v-26.3h-6.2v-11.7ZM276.1,477.5h44.8v11.7h-25.3v8.2h20.3v10.5h-20.3v7.6h25.3v11.7h-44.8v-11.7h7.8v-26.3h-7.8v-11.7ZM377.2,477.5h11.7v49.7h-6.2c-4.6,0-8.8-1-12.7-3-3.9-2-7.2-4.8-9.8-8.2-2.6,3.4-5.9,6.1-9.7,8.2-3.9,2-8.2,3-12.8,3h-5.8v-38h-7.6v-11.7h19.4v36.9c1.6-.6,3-1.4,4.3-2.5,1.3-1,2.5-2.2,3.4-3.6,1-1.4,1.7-2.9,2.3-4.4.5-1.6.8-3.3.8-5.1v-21.4h11.7v21.4c0,1.8.3,3.5.8,5.2.6,1.6,1.3,3.1,2.3,4.5,1,1.4,2.2,2.6,3.5,3.6,1.4,1,2.9,1.8,4.5,2.4v-37.1Z"/>
  </g>
</svg>